<?xml version="1.0" encoding="UTF-8" standalone="no"?>
<!-- Created with Inkscape (http://www.inkscape.org/) -->

<svg
   xmlns:dc="http://purl.org/dc/elements/1.1/"
   xmlns:cc="http://creativecommons.org/ns#"
   xmlns:rdf="http://www.w3.org/1999/02/22-rdf-syntax-ns#"
   xmlns:svg="http://www.w3.org/2000/svg"
   xmlns="http://www.w3.org/2000/svg"
   xmlns:sodipodi="http://sodipodi.sourceforge.net/DTD/sodipodi-0.dtd"
   xmlns:inkscape="http://www.inkscape.org/namespaces/inkscape"
   width="512"
   height="512"
   id="svg3017"
   version="1.1"
   inkscape:version="0.48.2 r9819"
   sodipodi:docname="blob.svg"
   inkscape:export-filename="/home/ben/Dev/musb/assets/spine/squirrel.png"
   inkscape:export-xdpi="90"
   inkscape:export-ydpi="90">
  <defs
     id="defs3019">
    <filter
       id="filter4166"
       inkscape:label="Liquid"
       inkscape:menu="Textures"
       inkscape:menu-tooltip="Colorizable filling with liquid transparency"
       height="2"
       y="-0.5"
       width="1.5"
       x="-0.25"
       color-interpolation-filters="sRGB">
      <feGaussianBlur
         id="feGaussianBlur4168"
         stdDeviation="5"
         result="result8" />
      <feTurbulence
         id="feTurbulence4170"
         seed="0"
         result="result7"
         type="turbulence"
         numOctaves="1"
         baseFrequency="0.02" />
      <feColorMatrix
         id="feColorMatrix4172"
         result="result5"
         values="1 0 0 0 0 0 1 0 0 0 0 0 1 0 0 0 0 0 4 0 " />
      <feComposite
         id="feComposite4174"
         in2="result8"
         result="result6"
         operator="in"
         in="result8" />
      <feDisplacementMap
         id="feDisplacementMap4176"
         in2="result6"
         in="result5"
         xChannelSelector="A"
         yChannelSelector="A"
         scale="120"
         result="result4" />
      <feComposite
         id="feComposite4178"
         in2="result4"
         result="result2"
         operator="in"
         in="result8" />
      <feComposite
         id="feComposite4180"
         in2="result2"
         result="fbSourceGraphic"
         in="SourceGraphic"
         operator="in" />
    </filter>
  </defs>
  <sodipodi:namedview
     id="base"
     pagecolor="#ffffff"
     bordercolor="#666666"
     borderopacity="1.0"
     inkscape:pageopacity="0.0"
     inkscape:pageshadow="2"
     inkscape:zoom="1.4142136"
     inkscape:cx="224.28289"
     inkscape:cy="260.28428"
     inkscape:current-layer="g3314"
     showgrid="true"
     inkscape:document-units="px"
     inkscape:grid-bbox="true"
     inkscape:window-width="1276"
     inkscape:window-height="756"
     inkscape:window-x="4"
     inkscape:window-y="0"
     inkscape:window-maximized="1" />
  <metadata
     id="metadata3022">
    <rdf:RDF>
      <cc:Work
         rdf:about="">
        <dc:format>image/svg+xml</dc:format>
        <dc:type
           rdf:resource="http://purl.org/dc/dcmitype/StillImage" />
        <dc:title />
      </cc:Work>
    </rdf:RDF>
  </metadata>
  <g
     inkscape:groupmode="layer"
     id="g3314"
     inkscape:label="normal"
     style="display:inline"
     transform="translate(0,448)">
    <path
       sodipodi:type="arc"
       style="fill:#e9afaf;fill-opacity:1;fill-rule:nonzero;stroke:#28170b;stroke-width:21.90708733;stroke-linecap:round;stroke-linejoin:round;stroke-miterlimit:4;stroke-opacity:1;stroke-dasharray:none"
       id="path4287"
       sodipodi:cx="548.71484"
       sodipodi:cy="311.18167"
       sodipodi:rx="147.0782"
       sodipodi:ry="144.24979"
       d="m 695.79305,311.18167 a 147.0782,144.24979 0 1 1 -294.15641,0 147.0782,144.24979 0 1 1 294.15641,0 z"
       transform="matrix(0.73035725,0,0,0.73035725,-131.04304,-383.09217)" />
    <g
       style="display:inline"
       id="g4843"
       transform="matrix(1.1525939,0,0,1.1525939,-40.962844,38.984916)">
      <path
         transform="matrix(9.1684941,0,0,12.740376,49.981253,-512.29853)"
         d="m 25.636364,24.272728 a 2.0454545,1.9090909 0 1 1 -4.090909,0 2.0454545,1.9090909 0 1 1 4.090909,0 z"
         sodipodi:ry="1.9090909"
         sodipodi:rx="2.0454545"
         sodipodi:cy="24.272728"
         sodipodi:cx="23.59091"
         id="path3483"
         style="fill:#000000;fill-opacity:1;stroke:#000000;stroke-width:0.90455818;stroke-linecap:butt;stroke-linejoin:round;stroke-miterlimit:4;stroke-opacity:1;stroke-dasharray:none;stroke-dashoffset:0"
         sodipodi:type="arc" />
      <path
         d="m 238,234 a 16.5,14 0 1 1 -33,0 16.5,14 0 1 1 33,0 z"
         sodipodi:ry="14"
         sodipodi:rx="16.5"
         sodipodi:cy="234"
         sodipodi:cx="221.5"
         id="path3093"
         style="fill:#808080;fill-opacity:1;stroke:none;display:inline"
         sodipodi:type="arc"
         transform="matrix(0.91595752,0,0,1.0451801,67.920763,-451.89471)" />
      <path
         transform="matrix(0.37512846,0,0,0.42805127,193.35338,-288.35374)"
         sodipodi:type="arc"
         style="fill:#e6e6e6;fill-opacity:1;stroke:none;display:inline"
         id="path3113"
         sodipodi:cx="221.5"
         sodipodi:cy="234"
         sodipodi:rx="16.5"
         sodipodi:ry="14"
         d="m 238,234 a 16.5,14 0 1 1 -33,0 16.5,14 0 1 1 33,0 z" />
      <path
         transform="matrix(0.68032286,0,0,0.75730899,117.91985,-387.82385)"
         sodipodi:type="arc"
         style="fill:#ffffff;fill-opacity:1;stroke:none;display:inline"
         id="path3097"
         sodipodi:cx="221.5"
         sodipodi:cy="234"
         sodipodi:rx="16.5"
         sodipodi:ry="14"
         d="m 238,234 a 16.5,14 0 1 1 -33,0 16.5,14 0 1 1 33,0 z" />
    </g>
    <g
       style="display:inline"
       id="g4827"
       transform="matrix(1.7065893,0,0,2.1793164,-205.24888,285.12468)">
      <path
         transform="matrix(5.3629134,0,0,6.1549771,135.46912,-372.10184)"
         d="m 34.090911,24.545454 a 1.9090909,1.8181819 0 1 1 -3.818182,0 1.9090909,1.8181819 0 1 1 3.818182,0 z"
         sodipodi:ry="1.8181819"
         sodipodi:rx="1.9090909"
         sodipodi:cy="24.545454"
         sodipodi:cx="32.18182"
         id="path3485"
         style="fill:#000000;fill-opacity:1;stroke:#000000;stroke-width:1.01698577;stroke-linecap:butt;stroke-linejoin:round;stroke-miterlimit:4;stroke-opacity:1;stroke-dasharray:none;stroke-dashoffset:0"
         sodipodi:type="arc" />
      <path
         transform="matrix(0.43581998,0,0,0.49730511,214.14468,-340.51239)"
         sodipodi:type="arc"
         style="fill:#808080;fill-opacity:1;stroke:none;display:inline"
         id="path3115"
         sodipodi:cx="221.5"
         sodipodi:cy="234"
         sodipodi:rx="16.5"
         sodipodi:ry="14"
         d="m 238,234 a 16.5,14 0 1 1 -33,0 16.5,14 0 1 1 33,0 z" />
      <path
         d="m 238,234 a 16.5,14 0 1 1 -33,0 16.5,14 0 1 1 33,0 z"
         sodipodi:ry="14"
         sodipodi:rx="16.5"
         sodipodi:cy="234"
         sodipodi:cx="221.5"
         id="path3117"
         style="fill:#e6e6e6;fill-opacity:1;stroke:none;display:inline"
         sodipodi:type="arc"
         transform="matrix(0.20114267,0,0,0.22951969,270.11593,-266.79332)" />
      <path
         d="m 238,234 a 16.5,14 0 1 1 -33,0 16.5,14 0 1 1 33,0 z"
         sodipodi:ry="14"
         sodipodi:rx="16.5"
         sodipodi:cy="234"
         sodipodi:cx="221.5"
         id="path3099"
         style="fill:#ffffff;fill-opacity:1;stroke:none;display:inline"
         sodipodi:type="arc"
         transform="matrix(0.31460786,0,0,0.35899248,239.74316,-309.14723)" />
    </g>
    <path
       sodipodi:type="arc"
       style="opacity:0.5;fill:#ffd5d5;fill-opacity:1;fill-rule:nonzero;stroke:none"
       id="path5246"
       sodipodi:cx="57.982754"
       sodipodi:cy="265.21973"
       sodipodi:rx="77.781746"
       sodipodi:ry="99.702057"
       d="m 135.7645,265.21973 a 77.781746,99.702057 0 1 1 -0.001,-0.54728"
       transform="matrix(0.20367786,0.14906891,-0.11759347,0.25819493,227.9748,-257.07376)"
       sodipodi:start="0"
       sodipodi:end="6.2776962"
       sodipodi:open="true" />
    <path
       style="fill:none;stroke:#000000;stroke-width:16;stroke-linecap:round;stroke-linejoin:round;stroke-miterlimit:4;stroke-opacity:1;stroke-dasharray:none;display:inline"
       d="m 270.90051,-138.23254 c -3.13294,31.7058 32.0539,19.10658 30.32697,0 3.94245,18.29428 36.65371,28.91063 31.78074,0"
       id="path5228"
       inkscape:connector-curvature="0"
       sodipodi:nodetypes="ccc" />
  </g>
  <g
     transform="translate(0,448)"
     style="display:none"
     inkscape:label="mouth open"
     id="g5303"
     inkscape:groupmode="layer">
    <path
       transform="matrix(0.73035725,0,0,0.73035725,-131.04304,-383.09217)"
       d="m 695.79305,311.18167 a 147.0782,144.24979 0 1 1 -294.15641,0 147.0782,144.24979 0 1 1 294.15641,0 z"
       sodipodi:ry="144.24979"
       sodipodi:rx="147.0782"
       sodipodi:cy="311.18167"
       sodipodi:cx="548.71484"
       id="path5305"
       style="fill:#e9afaf;fill-opacity:1;fill-rule:nonzero;stroke:#28170b;stroke-width:21.90708733;stroke-linecap:round;stroke-linejoin:round;stroke-miterlimit:4;stroke-opacity:1;stroke-dasharray:none"
       sodipodi:type="arc" />
    <g
       transform="matrix(1.1525939,0,0,1.1525939,-40.962843,38.984919)"
       id="g5307"
       style="display:inline">
      <path
         sodipodi:type="arc"
         style="fill:#000000;fill-opacity:1;stroke:#000000;stroke-width:0.90455818;stroke-linecap:butt;stroke-linejoin:round;stroke-miterlimit:4;stroke-opacity:1;stroke-dasharray:none;stroke-dashoffset:0"
         id="path5309"
         sodipodi:cx="23.59091"
         sodipodi:cy="24.272728"
         sodipodi:rx="2.0454545"
         sodipodi:ry="1.9090909"
         d="m 25.636364,24.272728 a 2.0454545,1.9090909 0 1 1 -4.090909,0 2.0454545,1.9090909 0 1 1 4.090909,0 z"
         transform="matrix(9.1684941,0,0,12.740376,49.981253,-512.29853)" />
      <path
         transform="matrix(0.91595752,0,0,1.0451801,67.920763,-451.89471)"
         sodipodi:type="arc"
         style="fill:#808080;fill-opacity:1;stroke:none;display:inline"
         id="path5311"
         sodipodi:cx="221.5"
         sodipodi:cy="234"
         sodipodi:rx="16.5"
         sodipodi:ry="14"
         d="m 238,234 a 16.5,14 0 1 1 -33,0 16.5,14 0 1 1 33,0 z" />
      <path
         d="m 238,234 a 16.5,14 0 1 1 -33,0 16.5,14 0 1 1 33,0 z"
         sodipodi:ry="14"
         sodipodi:rx="16.5"
         sodipodi:cy="234"
         sodipodi:cx="221.5"
         id="path5313"
         style="fill:#e6e6e6;fill-opacity:1;stroke:none;display:inline"
         sodipodi:type="arc"
         transform="matrix(0.37512846,0,0,0.42805127,193.35338,-288.35374)" />
      <path
         d="m 238,234 a 16.5,14 0 1 1 -33,0 16.5,14 0 1 1 33,0 z"
         sodipodi:ry="14"
         sodipodi:rx="16.5"
         sodipodi:cy="234"
         sodipodi:cx="221.5"
         id="path5315"
         style="fill:#ffffff;fill-opacity:1;stroke:none;display:inline"
         sodipodi:type="arc"
         transform="matrix(0.68032286,0,0,0.75730899,117.91985,-387.82385)" />
    </g>
    <g
       transform="matrix(1.7065893,0,0,2.1793164,-205.24888,285.12468)"
       id="g5317"
       style="display:inline">
      <path
         sodipodi:type="arc"
         style="fill:#000000;fill-opacity:1;stroke:#000000;stroke-width:1.01698577;stroke-linecap:butt;stroke-linejoin:round;stroke-miterlimit:4;stroke-opacity:1;stroke-dasharray:none;stroke-dashoffset:0"
         id="path5319"
         sodipodi:cx="32.18182"
         sodipodi:cy="24.545454"
         sodipodi:rx="1.9090909"
         sodipodi:ry="1.8181819"
         d="m 34.090911,24.545454 a 1.9090909,1.8181819 0 1 1 -3.818182,0 1.9090909,1.8181819 0 1 1 3.818182,0 z"
         transform="matrix(5.3629134,0,0,6.1549771,135.46912,-372.10184)" />
      <path
         d="m 238,234 a 16.5,14 0 1 1 -33,0 16.5,14 0 1 1 33,0 z"
         sodipodi:ry="14"
         sodipodi:rx="16.5"
         sodipodi:cy="234"
         sodipodi:cx="221.5"
         id="path5321"
         style="fill:#808080;fill-opacity:1;stroke:none;display:inline"
         sodipodi:type="arc"
         transform="matrix(0.43581998,0,0,0.49730511,214.14468,-340.51239)" />
      <path
         transform="matrix(0.20114267,0,0,0.22951969,270.11593,-266.79332)"
         sodipodi:type="arc"
         style="fill:#e6e6e6;fill-opacity:1;stroke:none;display:inline"
         id="path5323"
         sodipodi:cx="221.5"
         sodipodi:cy="234"
         sodipodi:rx="16.5"
         sodipodi:ry="14"
         d="m 238,234 a 16.5,14 0 1 1 -33,0 16.5,14 0 1 1 33,0 z" />
      <path
         transform="matrix(0.31460786,0,0,0.35899248,239.74316,-309.14723)"
         sodipodi:type="arc"
         style="fill:#ffffff;fill-opacity:1;stroke:none;display:inline"
         id="path5325"
         sodipodi:cx="221.5"
         sodipodi:cy="234"
         sodipodi:rx="16.5"
         sodipodi:ry="14"
         d="m 238,234 a 16.5,14 0 1 1 -33,0 16.5,14 0 1 1 33,0 z" />
    </g>
    <path
       sodipodi:open="true"
       sodipodi:end="6.2776962"
       sodipodi:start="0"
       transform="matrix(0.20367786,0.14906891,-0.11759347,0.25819493,227.9748,-257.07376)"
       d="m 135.7645,265.21973 a 77.781746,99.702057 0 1 1 -0.001,-0.54728"
       sodipodi:ry="99.702057"
       sodipodi:rx="77.781746"
       sodipodi:cy="265.21973"
       sodipodi:cx="57.982754"
       id="path5327"
       style="opacity:0.5;fill:#ffd5d5;fill-opacity:1;fill-rule:nonzero;stroke:none"
       sodipodi:type="arc" />
    <path
       sodipodi:type="arc"
       style="fill:#000000;fill-opacity:1;fill-rule:nonzero;stroke:none;display:inline"
       id="path5231"
       sodipodi:cx="-199.40411"
       sodipodi:cy="182.48825"
       sodipodi:rx="57.982754"
       sodipodi:ry="49.497475"
       d="m -141.42136,182.48825 a 57.982754,49.497475 0 1 1 -115.96551,0 57.982754,49.497475 0 1 1 115.96551,0 z"
       transform="matrix(0.70731707,0,0,0.72857144,436.61255,-249.26796)" />
  </g>
  <g
     inkscape:groupmode="layer"
     id="g5356"
     inkscape:label="mouth happy"
     style="display:none"
     transform="translate(0,448)">
    <path
       sodipodi:type="arc"
       style="fill:#e9afaf;fill-opacity:1;fill-rule:nonzero;stroke:#28170b;stroke-width:21.90708733;stroke-linecap:round;stroke-linejoin:round;stroke-miterlimit:4;stroke-opacity:1;stroke-dasharray:none"
       id="path5358"
       sodipodi:cx="548.71484"
       sodipodi:cy="311.18167"
       sodipodi:rx="147.0782"
       sodipodi:ry="144.24979"
       d="m 695.79305,311.18167 c 0,79.66696 -65.84916,144.24979 -147.07821,144.24979 -81.22904,0 -147.0782,-64.58283 -147.0782,-144.24979 0,-79.66696 65.84916,-144.24979 147.0782,-144.24979 81.22905,0 147.07821,64.58283 147.07821,144.24979 z"
       transform="matrix(0.73035725,0,0,0.73035725,-131.04304,-383.09217)" />
    <g
       style="display:inline"
       id="g5360"
       transform="matrix(1.1525939,0,0,1.1525939,-40.962844,38.984916)">
      <path
         transform="matrix(9.1684941,0,0,12.740376,49.981253,-512.29853)"
         d="m 25.636364,24.272728 c 0,1.054362 -0.915781,1.909091 -2.045454,1.909091 -1.129673,0 -2.045455,-0.854729 -2.045455,-1.909091 0,-1.054362 0.915782,-1.909091 2.045455,-1.909091 1.129673,0 2.045454,0.854729 2.045454,1.909091 z"
         sodipodi:ry="1.9090909"
         sodipodi:rx="2.0454545"
         sodipodi:cy="24.272728"
         sodipodi:cx="23.59091"
         id="path5362"
         style="fill:#000000;fill-opacity:1;stroke:#000000;stroke-width:0.90455818;stroke-linecap:butt;stroke-linejoin:round;stroke-miterlimit:4;stroke-opacity:1;stroke-dasharray:none;stroke-dashoffset:0"
         sodipodi:type="arc" />
      <path
         d="m 238,234 c 0,7.73199 -7.3873,14 -16.5,14 -9.1127,0 -16.5,-6.26801 -16.5,-14 0,-7.73199 7.3873,-14 16.5,-14 9.1127,0 16.5,6.26801 16.5,14 z"
         sodipodi:ry="14"
         sodipodi:rx="16.5"
         sodipodi:cy="234"
         sodipodi:cx="221.5"
         id="path5364"
         style="fill:#808080;fill-opacity:1;stroke:none;display:inline"
         sodipodi:type="arc"
         transform="matrix(0.91595752,0,0,1.0451801,67.920763,-451.89471)" />
      <path
         transform="matrix(0.37512846,0,0,0.42805127,193.35338,-288.35374)"
         sodipodi:type="arc"
         style="fill:#e6e6e6;fill-opacity:1;stroke:none;display:inline"
         id="path5366"
         sodipodi:cx="221.5"
         sodipodi:cy="234"
         sodipodi:rx="16.5"
         sodipodi:ry="14"
         d="m 238,234 c 0,7.73199 -7.3873,14 -16.5,14 -9.1127,0 -16.5,-6.26801 -16.5,-14 0,-7.73199 7.3873,-14 16.5,-14 9.1127,0 16.5,6.26801 16.5,14 z" />
      <path
         transform="matrix(0.68032286,0,0,0.75730899,117.91985,-387.82385)"
         sodipodi:type="arc"
         style="fill:#ffffff;fill-opacity:1;stroke:none;display:inline"
         id="path5368"
         sodipodi:cx="221.5"
         sodipodi:cy="234"
         sodipodi:rx="16.5"
         sodipodi:ry="14"
         d="m 238,234 c 0,7.73199 -7.3873,14 -16.5,14 -9.1127,0 -16.5,-6.26801 -16.5,-14 0,-7.73199 7.3873,-14 16.5,-14 9.1127,0 16.5,6.26801 16.5,14 z" />
    </g>
    <g
       style="display:inline"
       id="g5370"
       transform="matrix(1.7065893,0,0,2.1793164,-205.24888,285.12468)">
      <path
         transform="matrix(5.3629134,0,0,6.1549771,135.46912,-372.10184)"
         d="m 34.090911,24.545454 c 0,1.004154 -0.854729,1.818182 -1.909091,1.818182 -1.054362,0 -1.909091,-0.814028 -1.909091,-1.818182 0,-1.004154 0.854729,-1.818182 1.909091,-1.818182 1.054362,0 1.909091,0.814028 1.909091,1.818182 z"
         sodipodi:ry="1.8181819"
         sodipodi:rx="1.9090909"
         sodipodi:cy="24.545454"
         sodipodi:cx="32.18182"
         id="path5372"
         style="fill:#000000;fill-opacity:1;stroke:#000000;stroke-width:1.01698577;stroke-linecap:butt;stroke-linejoin:round;stroke-miterlimit:4;stroke-opacity:1;stroke-dasharray:none;stroke-dashoffset:0"
         sodipodi:type="arc" />
      <path
         transform="matrix(0.43581998,0,0,0.49730511,214.14468,-340.51239)"
         sodipodi:type="arc"
         style="fill:#808080;fill-opacity:1;stroke:none;display:inline"
         id="path5374"
         sodipodi:cx="221.5"
         sodipodi:cy="234"
         sodipodi:rx="16.5"
         sodipodi:ry="14"
         d="m 238,234 c 0,7.73199 -7.3873,14 -16.5,14 -9.1127,0 -16.5,-6.26801 -16.5,-14 0,-7.73199 7.3873,-14 16.5,-14 9.1127,0 16.5,6.26801 16.5,14 z" />
      <path
         d="m 238,234 c 0,7.73199 -7.3873,14 -16.5,14 -9.1127,0 -16.5,-6.26801 -16.5,-14 0,-7.73199 7.3873,-14 16.5,-14 9.1127,0 16.5,6.26801 16.5,14 z"
         sodipodi:ry="14"
         sodipodi:rx="16.5"
         sodipodi:cy="234"
         sodipodi:cx="221.5"
         id="path5376"
         style="fill:#e6e6e6;fill-opacity:1;stroke:none;display:inline"
         sodipodi:type="arc"
         transform="matrix(0.20114267,0,0,0.22951969,270.11593,-266.79332)" />
      <path
         d="m 238,234 c 0,7.73199 -7.3873,14 -16.5,14 -9.1127,0 -16.5,-6.26801 -16.5,-14 0,-7.73199 7.3873,-14 16.5,-14 9.1127,0 16.5,6.26801 16.5,14 z"
         sodipodi:ry="14"
         sodipodi:rx="16.5"
         sodipodi:cy="234"
         sodipodi:cx="221.5"
         id="path5378"
         style="fill:#ffffff;fill-opacity:1;stroke:none;display:inline"
         sodipodi:type="arc"
         transform="matrix(0.31460786,0,0,0.35899248,239.74316,-309.14723)" />
    </g>
    <path
       sodipodi:type="arc"
       style="opacity:0.5;fill:#ffd5d5;fill-opacity:1;fill-rule:nonzero;stroke:none"
       id="path5380"
       sodipodi:cx="57.982754"
       sodipodi:cy="265.21973"
       sodipodi:rx="77.781746"
       sodipodi:ry="99.702057"
       d="m 135.7645,265.21973 c 0,55.06392 -34.82407,99.70205 -77.781746,99.70205 -42.957672,0 -77.781746,-44.63813 -77.781746,-99.70205 0,-55.06393 34.824074,-99.70206 77.781746,-99.70206 42.791036,0 77.545686,44.30529 77.780576,99.15478"
       transform="matrix(0.20367786,0.14906891,-0.11759347,0.25819493,227.9748,-257.07376)"
       sodipodi:start="0"
       sodipodi:end="6.2776962"
       sodipodi:open="true" />
    <path
       sodipodi:type="arc"
       style="fill:#000000;fill-opacity:1;fill-rule:nonzero;stroke:none;display:inline"
       id="path5268"
       sodipodi:cx="-163.34166"
       sodipodi:cy="154.91109"
       sodipodi:rx="65.760925"
       sodipodi:ry="47.376152"
       d="m -97.580734,154.91109 c 0,26.16512 -29.442166,47.37615 -65.760926,47.37615 -36.31876,0 -65.76092,-21.21103 -65.76092,-47.37615 0,0 0,0 0,-1e-5 l 65.76092,1e-5 z"
       sodipodi:start="0"
       sodipodi:end="3.1415927"
       transform="matrix(0.7414878,0,0,1.4719092,417.39361,-374.59767)" />
  </g>
  <g
     transform="translate(0,448)"
     style="display:none"
     inkscape:label="mouth sad"
     id="g5391"
     inkscape:groupmode="layer">
    <path
       transform="matrix(0.73035725,0,0,0.73035725,-131.04304,-383.09217)"
       d="m 695.79305,311.18167 c 0,79.66696 -65.84916,144.24979 -147.07821,144.24979 -81.22904,0 -147.0782,-64.58283 -147.0782,-144.24979 0,-79.66696 65.84916,-144.24979 147.0782,-144.24979 81.22905,0 147.07821,64.58283 147.07821,144.24979 z"
       sodipodi:ry="144.24979"
       sodipodi:rx="147.0782"
       sodipodi:cy="311.18167"
       sodipodi:cx="548.71484"
       id="path5393"
       style="fill:#e9afaf;fill-opacity:1;fill-rule:nonzero;stroke:#28170b;stroke-width:21.90708733;stroke-linecap:round;stroke-linejoin:round;stroke-miterlimit:4;stroke-opacity:1;stroke-dasharray:none"
       sodipodi:type="arc" />
    <g
       transform="matrix(1.1133202,0.29831325,-0.29831325,1.1133202,-91.079221,-48.42297)"
       id="g5395"
       style="display:inline">
      <path
         sodipodi:type="arc"
         style="fill:#000000;fill-opacity:1;stroke:#000000;stroke-width:0.90455818;stroke-linecap:butt;stroke-linejoin:round;stroke-miterlimit:4;stroke-opacity:1;stroke-dasharray:none;stroke-dashoffset:0"
         id="path5397"
         sodipodi:cx="23.59091"
         sodipodi:cy="24.272728"
         sodipodi:rx="2.0454545"
         sodipodi:ry="1.9090909"
         d="m 25.636364,24.272728 c 0,1.054362 -0.915781,1.909091 -2.045454,1.909091 -1.129673,0 -2.045455,-0.854729 -2.045455,-1.909091 0,-1.054362 0.915782,-1.909091 2.045455,-1.909091 1.129673,0 2.045454,0.854729 2.045454,1.909091 z"
         transform="matrix(9.1684941,0,0,12.740376,49.981253,-512.29853)" />
      <path
         transform="matrix(0.91595752,0,0,1.0451801,67.920763,-451.89471)"
         sodipodi:type="arc"
         style="fill:#808080;fill-opacity:1;stroke:none;display:inline"
         id="path5399"
         sodipodi:cx="221.5"
         sodipodi:cy="234"
         sodipodi:rx="16.5"
         sodipodi:ry="14"
         d="m 238,234 c 0,7.73199 -7.3873,14 -16.5,14 -9.1127,0 -16.5,-6.26801 -16.5,-14 0,-7.73199 7.3873,-14 16.5,-14 9.1127,0 16.5,6.26801 16.5,14 z" />
      <path
         d="m 238,234 c 0,7.73199 -7.3873,14 -16.5,14 -9.1127,0 -16.5,-6.26801 -16.5,-14 0,-7.73199 7.3873,-14 16.5,-14 9.1127,0 16.5,6.26801 16.5,14 z"
         sodipodi:ry="14"
         sodipodi:rx="16.5"
         sodipodi:cy="234"
         sodipodi:cx="221.5"
         id="path5401"
         style="fill:#e6e6e6;fill-opacity:1;stroke:none;display:inline"
         sodipodi:type="arc"
         transform="matrix(0.37512846,0,0,0.42805127,193.35338,-288.35374)" />
      <path
         d="m 238,234 c 0,7.73199 -7.3873,14 -16.5,14 -9.1127,0 -16.5,-6.26801 -16.5,-14 0,-7.73199 7.3873,-14 16.5,-14 9.1127,0 16.5,6.26801 16.5,14 z"
         sodipodi:ry="14"
         sodipodi:rx="16.5"
         sodipodi:cy="234"
         sodipodi:cx="221.5"
         id="path5403"
         style="fill:#ffffff;fill-opacity:1;stroke:none;display:inline"
         sodipodi:type="arc"
         transform="matrix(0.68032286,0,0,0.75730899,117.91985,-387.82385)" />
    </g>
    <g
       transform="matrix(1.6484387,-0.44169781,0.56404859,2.105058,-62.666235,404.78)"
       id="g5405"
       style="display:inline">
      <path
         sodipodi:type="arc"
         style="fill:#000000;fill-opacity:1;stroke:#000000;stroke-width:1.01698577;stroke-linecap:butt;stroke-linejoin:round;stroke-miterlimit:4;stroke-opacity:1;stroke-dasharray:none;stroke-dashoffset:0"
         id="path5407"
         sodipodi:cx="32.18182"
         sodipodi:cy="24.545454"
         sodipodi:rx="1.9090909"
         sodipodi:ry="1.8181819"
         d="m 34.090911,24.545454 c 0,1.004154 -0.854729,1.818182 -1.909091,1.818182 -1.054362,0 -1.909091,-0.814028 -1.909091,-1.818182 0,-1.004154 0.854729,-1.818182 1.909091,-1.818182 1.054362,0 1.909091,0.814028 1.909091,1.818182 z"
         transform="matrix(5.3629134,0,0,6.1549771,135.46912,-372.10184)" />
      <path
         d="m 238,234 c 0,7.73199 -7.3873,14 -16.5,14 -9.1127,0 -16.5,-6.26801 -16.5,-14 0,-7.73199 7.3873,-14 16.5,-14 9.1127,0 16.5,6.26801 16.5,14 z"
         sodipodi:ry="14"
         sodipodi:rx="16.5"
         sodipodi:cy="234"
         sodipodi:cx="221.5"
         id="path5409"
         style="fill:#808080;fill-opacity:1;stroke:none;display:inline"
         sodipodi:type="arc"
         transform="matrix(0.43581998,0,0,0.49730511,214.14468,-340.51239)" />
      <path
         transform="matrix(0.20114267,0,0,0.22951969,270.11593,-266.79332)"
         sodipodi:type="arc"
         style="fill:#e6e6e6;fill-opacity:1;stroke:none;display:inline"
         id="path5411"
         sodipodi:cx="221.5"
         sodipodi:cy="234"
         sodipodi:rx="16.5"
         sodipodi:ry="14"
         d="m 238,234 c 0,7.73199 -7.3873,14 -16.5,14 -9.1127,0 -16.5,-6.26801 -16.5,-14 0,-7.73199 7.3873,-14 16.5,-14 9.1127,0 16.5,6.26801 16.5,14 z" />
      <path
         transform="matrix(0.31460786,0,0,0.35899248,239.74316,-309.14723)"
         sodipodi:type="arc"
         style="fill:#ffffff;fill-opacity:1;stroke:none;display:inline"
         id="path5413"
         sodipodi:cx="221.5"
         sodipodi:cy="234"
         sodipodi:rx="16.5"
         sodipodi:ry="14"
         d="m 238,234 c 0,7.73199 -7.3873,14 -16.5,14 -9.1127,0 -16.5,-6.26801 -16.5,-14 0,-7.73199 7.3873,-14 16.5,-14 9.1127,0 16.5,6.26801 16.5,14 z" />
    </g>
    <path
       sodipodi:open="true"
       sodipodi:end="6.2776962"
       sodipodi:start="0"
       transform="matrix(0.20367786,0.14906891,-0.11759347,0.25819493,227.9748,-257.07376)"
       d="m 135.7645,265.21973 c 0,55.06392 -34.82407,99.70205 -77.781746,99.70205 -42.957672,0 -77.781746,-44.63813 -77.781746,-99.70205 0,-55.06393 34.824074,-99.70206 77.781746,-99.70206 42.791036,0 77.545686,44.30529 77.780576,99.15478"
       sodipodi:ry="99.702057"
       sodipodi:rx="77.781746"
       sodipodi:cy="265.21973"
       sodipodi:cx="57.982754"
       id="path5415"
       style="opacity:0.5;fill:#ffd5d5;fill-opacity:1;fill-rule:nonzero;stroke:none"
       sodipodi:type="arc" />
    <path
       transform="matrix(0.7414878,0,0,-0.63608833,417.39361,-15.08164)"
       sodipodi:end="3.1415927"
       sodipodi:start="0"
       d="m -97.580734,154.91109 c 0,26.16512 -29.442166,47.37615 -65.760926,47.37615 -36.31876,0 -65.76092,-21.21103 -65.76092,-47.37615 0,0 0,0 0,-1e-5 l 65.76092,1e-5 z"
       sodipodi:ry="47.376152"
       sodipodi:rx="65.760925"
       sodipodi:cy="154.91109"
       sodipodi:cx="-163.34166"
       id="path5417"
       style="fill:#000000;fill-opacity:1;fill-rule:nonzero;stroke:none;display:inline"
       sodipodi:type="arc" />
  </g>
</svg>
