<?xml version="1.0" encoding="UTF-8" standalone="no"?>
<!-- Created with Inkscape (http://www.inkscape.org/) -->

<svg
   xmlns:dc="http://purl.org/dc/elements/1.1/"
   xmlns:cc="http://creativecommons.org/ns#"
   xmlns:rdf="http://www.w3.org/1999/02/22-rdf-syntax-ns#"
   xmlns:svg="http://www.w3.org/2000/svg"
   xmlns="http://www.w3.org/2000/svg"
   xmlns:sodipodi="http://sodipodi.sourceforge.net/DTD/sodipodi-0.dtd"
   xmlns:inkscape="http://www.inkscape.org/namespaces/inkscape"
   width="512"
   height="512"
   id="svg3017"
   version="1.1"
   inkscape:version="0.48.2 r9819"
   sodipodi:docname="egg.svg"
   inkscape:export-filename="/home/ben/Dev/musb/assets/spine/squirrel.png"
   inkscape:export-xdpi="90"
   inkscape:export-ydpi="90">
  <defs
     id="defs3019">
    <filter
       id="filter4166"
       inkscape:label="Liquid"
       inkscape:menu="Textures"
       inkscape:menu-tooltip="Colorizable filling with liquid transparency"
       height="2"
       y="-0.5"
       width="1.5"
       x="-0.25"
       color-interpolation-filters="sRGB">
      <feGaussianBlur
         id="feGaussianBlur4168"
         stdDeviation="5"
         result="result8" />
      <feTurbulence
         id="feTurbulence4170"
         seed="0"
         result="result7"
         type="turbulence"
         numOctaves="1"
         baseFrequency="0.02" />
      <feColorMatrix
         id="feColorMatrix4172"
         result="result5"
         values="1 0 0 0 0 0 1 0 0 0 0 0 1 0 0 0 0 0 4 0 " />
      <feComposite
         id="feComposite4174"
         in2="result8"
         result="result6"
         operator="in"
         in="result8" />
      <feDisplacementMap
         id="feDisplacementMap4176"
         in2="result6"
         in="result5"
         xChannelSelector="A"
         yChannelSelector="A"
         scale="120"
         result="result4" />
      <feComposite
         id="feComposite4178"
         in2="result4"
         result="result2"
         operator="in"
         in="result8" />
      <feComposite
         id="feComposite4180"
         in2="result2"
         result="fbSourceGraphic"
         in="SourceGraphic"
         operator="in" />
    </filter>
  </defs>
  <sodipodi:namedview
     id="base"
     pagecolor="#ffffff"
     bordercolor="#666666"
     borderopacity="1.0"
     inkscape:pageopacity="0.0"
     inkscape:pageshadow="2"
     inkscape:zoom="0.7071068"
     inkscape:cx="214.88234"
     inkscape:cy="260.28428"
     inkscape:current-layer="svg3017"
     showgrid="true"
     inkscape:document-units="px"
     inkscape:grid-bbox="true"
     inkscape:window-width="1276"
     inkscape:window-height="756"
     inkscape:window-x="4"
     inkscape:window-y="0"
     inkscape:window-maximized="1" />
  <metadata
     id="metadata3022">
    <rdf:RDF>
      <cc:Work
         rdf:about="">
        <dc:format>image/svg+xml</dc:format>
        <dc:type
           rdf:resource="http://purl.org/dc/dcmitype/StillImage" />
        <dc:title />
      </cc:Work>
    </rdf:RDF>
  </metadata>
  <g
     inkscape:groupmode="layer"
     id="g3314"
     inkscape:label="normal"
     style="display:inline"
     transform="translate(0,448)">
    <g
       id="g5445"
       transform="matrix(0.90328923,0,0,0.90328923,26.093957,-17.080023)">
      <path
         sodipodi:nodetypes="cscc"
         inkscape:connector-curvature="0"
         id="path4287"
         d="m 377.13446,-143.66876 c 0,51.475289 -48.09341,93.204253 -107.41964,93.204253 -59.32622,0 -107.41963,-41.728964 -107.41963,-93.204253 4.78743,-228.09576 222.52223,-195.50602 214.83927,0 z"
         style="fill:#e3e2db;fill-opacity:1;fill-rule:nonzero;stroke:#28170b;stroke-width:17.71304703;stroke-linecap:round;stroke-linejoin:round;stroke-miterlimit:4;stroke-opacity:1" />
      <path
         sodipodi:open="true"
         sodipodi:end="6.2776962"
         sodipodi:start="0"
         transform="matrix(0.20367786,0.14906891,-0.11759347,0.25819493,225.14637,-281.11539)"
         d="m 135.7645,265.21973 a 77.781746,99.702057 0 1 1 -0.001,-0.54728"
         sodipodi:ry="99.702057"
         sodipodi:rx="77.781746"
         sodipodi:cy="265.21973"
         sodipodi:cx="57.982754"
         id="path5246"
         style="opacity:0.5;fill:#abc837;fill-opacity:1;fill-rule:nonzero;stroke:none"
         sodipodi:type="arc" />
      <path
         sodipodi:type="arc"
         style="opacity:0.5;fill:#abc837;fill-opacity:1;fill-rule:nonzero;stroke:none"
         id="path5420"
         sodipodi:cx="57.982754"
         sodipodi:cy="265.21973"
         sodipodi:rx="77.781746"
         sodipodi:ry="99.702057"
         d="m 135.7645,265.21973 a 77.781746,99.702057 0 1 1 -0.001,-0.54728"
         transform="matrix(0.35043841,0.02725853,0.03806895,0.2824001,266.53101,-318.65597)"
         sodipodi:start="0"
         sodipodi:end="6.2776962"
         sodipodi:open="true" />
      <path
         inkscape:transform-center-y="-24.04163"
         inkscape:transform-center-x="39.236912"
         sodipodi:open="true"
         sodipodi:end="6.2776962"
         sodipodi:start="0"
         transform="matrix(0.03787739,-0.48695557,0.3924122,-0.05289915,201.98901,-86.775379)"
         d="m 135.7645,265.21973 a 77.781746,99.702057 0 1 1 -0.001,-0.54728"
         sodipodi:ry="99.702057"
         sodipodi:rx="77.781746"
         sodipodi:cy="265.21973"
         sodipodi:cx="57.982754"
         id="path5422"
         style="opacity:0.5;fill:#abc837;fill-opacity:1;fill-rule:nonzero;stroke:none"
         sodipodi:type="arc" />
      <path
         sodipodi:type="arc"
         style="opacity:0.5;fill:#abc837;fill-opacity:1;fill-rule:nonzero;stroke:none"
         id="path5424"
         sodipodi:cx="57.982754"
         sodipodi:cy="265.21973"
         sodipodi:rx="77.781746"
         sodipodi:ry="99.702057"
         d="m 135.7645,265.21973 a 77.781746,99.702057 0 1 1 -0.001,-0.54728"
         transform="matrix(0.18395073,-0.02847752,0.073321,0.19596654,171.41328,-163.8069)"
         sodipodi:start="0"
         sodipodi:end="6.2776962"
         sodipodi:open="true" />
    </g>
  </g>
  <g
     transform="translate(0,448)"
     style="display:none"
     inkscape:label="cracked"
     id="g5453"
     inkscape:groupmode="layer">
    <path
       sodipodi:nodetypes="cscc"
       inkscape:connector-curvature="0"
       id="path5457"
       d="m 366.75542,-146.85446 c 0,46.49708 -43.4423,84.1904 -97.03101,84.1904 -53.58873,0 -97.03096,-37.69332 -97.03096,-84.1904 4.3244,-206.0364 201.00188,-176.59843 194.06197,0 z"
       style="fill:#e3e2db;fill-opacity:1;fill-rule:nonzero;stroke:#28170b;stroke-width:16.00000191;stroke-linecap:round;stroke-linejoin:round;stroke-miterlimit:4;stroke-opacity:1" />
    <path
       sodipodi:open="true"
       sodipodi:end="6.2776962"
       sodipodi:start="0"
       transform="matrix(0.18397998,0.1346523,-0.10622089,0.23322463,229.46621,-271.00847)"
       d="m 135.7645,265.21973 a 77.781746,99.702057 0 1 1 -0.001,-0.54728"
       sodipodi:ry="99.702057"
       sodipodi:rx="77.781746"
       sodipodi:cy="265.21973"
       sodipodi:cx="57.982754"
       id="path5459"
       style="opacity:0.5;fill:#abc837;fill-opacity:1;fill-rule:nonzero;stroke:none"
       sodipodi:type="arc" />
    <path
       sodipodi:type="arc"
       style="opacity:0.5;fill:#abc837;fill-opacity:1;fill-rule:nonzero;stroke:none"
       id="path5461"
       sodipodi:cx="57.982754"
       sodipodi:cy="265.21973"
       sodipodi:rx="77.781746"
       sodipodi:ry="99.702057"
       d="m 135.7645,265.21973 a 77.781746,99.702057 0 1 1 -0.001,-0.54728"
       transform="matrix(0.31654721,0.02462232,0.03438727,0.25508894,266.84851,-304.91847)"
       sodipodi:start="0"
       sodipodi:end="6.2776962"
       sodipodi:open="true" />
    <path
       inkscape:transform-center-y="-18.062274"
       inkscape:transform-center-x="29.478343"
       sodipodi:open="true"
       sodipodi:end="6.2776962"
       sodipodi:start="0"
       transform="matrix(0.03421424,-0.43986164,0.35446165,-0.04778323,208.54844,-95.463272)"
       d="m 135.7645,265.21973 a 77.781746,99.702057 0 1 1 -0.001,-0.54728"
       sodipodi:ry="99.702057"
       sodipodi:rx="77.781746"
       sodipodi:cy="265.21973"
       sodipodi:cx="57.982754"
       id="path5463"
       style="opacity:0.5;fill:#abc837;fill-opacity:1;fill-rule:nonzero;stroke:none"
       sodipodi:type="arc" />
    <path
       sodipodi:type="arc"
       style="opacity:0.5;fill:#abc837;fill-opacity:1;fill-rule:nonzero;stroke:none"
       id="path5465"
       sodipodi:cx="57.982754"
       sodipodi:cy="265.21973"
       sodipodi:rx="77.781746"
       sodipodi:ry="99.702057"
       d="m 135.7645,265.21973 a 77.781746,99.702057 0 1 1 -0.001,-0.54728"
       transform="matrix(0.16616068,-0.02572342,0.06623006,0.17701444,180.92969,-165.045)"
       sodipodi:start="0"
       sodipodi:end="6.2776962"
       sodipodi:open="true" />
    <path
       style="fill:#e3e2db;fill-opacity:1;fill-rule:nonzero;stroke:#28170b;stroke-width:16.00000191;stroke-linecap:round;stroke-linejoin:round;stroke-miterlimit:4;stroke-opacity:1;stroke-dasharray:none"
       d="m 233.14047,-278.32716 c 1.637,2.93233 -1.50125,8.26692 0,11.26939 0.74493,1.48975 19.53361,-5.3793 19.53361,-1.50259 0,2.97007 -15.42224,14.62942 -12.0207,18.03099 0.22981,0.22982 3.32189,0.14485 3.75649,0 8.77147,-2.92382 2.37733,0.49382 3.75641,6.01034 0.49809,1.99222 1.09327,3.96356 1.50262,6.01033"
       id="path5474"
       inkscape:connector-curvature="0" />
    <path
       style="fill:#e3e2db;fill-opacity:1;fill-rule:nonzero;stroke:#28170b;stroke-width:16.00000191;stroke-linecap:round;stroke-linejoin:round;stroke-miterlimit:4;stroke-opacity:1;stroke-dasharray:none"
       d="m 347.33678,-98.76847 c -2.37701,-1.25484 -6.61165,1.20192 -9.01545,0 -1.70068,-0.850323 1.3028,-10.7178 -0.75131,-12.77195 -5.56388,-5.56389 -21.13428,0 -27.79779,0 -2.42692,0 -8.47169,-7.5129 -18.7823,-7.5129"
       id="path5476"
       inkscape:connector-curvature="0" />
    <path
       sodipodi:nodetypes="csccsc"
       inkscape:connector-curvature="0"
       id="path5490-9"
       d="m 175.47869,-153.08957 c 0.0707,-2.0662 16.44422,-23.93032 18.06229,-22.31221 1.85485,1.85484 1.57743,17.69725 14.87484,26.56216 m 140.24817,-24.43721 c 1.77087,0 0,3.54168 0,5.31246 0,17.25109 13.14645,7.04082 18.06232,2.12498"
       style="fill:#e3e2db;fill-opacity:1;fill-rule:nonzero;stroke:#28170b;stroke-width:16.00000191;stroke-linecap:round;stroke-linejoin:round;stroke-miterlimit:4;stroke-opacity:1;stroke-dasharray:none;display:inline" />
  </g>
  <g
     inkscape:groupmode="layer"
     id="g5478"
     inkscape:label="very cracked"
     style="display:none"
     transform="translate(0,448)">
    <path
       style="fill:#e3e2db;fill-opacity:1;fill-rule:nonzero;stroke:#28170b;stroke-width:16.00000191;stroke-linecap:round;stroke-linejoin:round;stroke-miterlimit:4;stroke-opacity:1"
       d="m 366.75542,-146.85446 c 0,46.49708 -43.4423,84.1904 -97.03101,84.1904 -53.58873,0 -97.03096,-37.69332 -97.03096,-84.1904 4.3244,-206.0364 201.00188,-176.59843 194.06197,0 z"
       id="path5480"
       inkscape:connector-curvature="0"
       sodipodi:nodetypes="cscc" />
    <path
       sodipodi:type="arc"
       style="opacity:0.5;fill:#abc837;fill-opacity:1;fill-rule:nonzero;stroke:none"
       id="path5482"
       sodipodi:cx="57.982754"
       sodipodi:cy="265.21973"
       sodipodi:rx="77.781746"
       sodipodi:ry="99.702057"
       d="m 135.7645,265.21973 a 77.781746,99.702057 0 1 1 -0.001,-0.54728"
       transform="matrix(0.18397998,0.1346523,-0.10622089,0.23322463,229.46621,-271.00847)"
       sodipodi:start="0"
       sodipodi:end="6.2776962"
       sodipodi:open="true" />
    <path
       sodipodi:open="true"
       sodipodi:end="6.2776962"
       sodipodi:start="0"
       transform="matrix(0.31654721,0.02462232,0.03438727,0.25508894,266.84851,-304.91847)"
       d="m 135.7645,265.21973 a 77.781746,99.702057 0 1 1 -0.001,-0.54728"
       sodipodi:ry="99.702057"
       sodipodi:rx="77.781746"
       sodipodi:cy="265.21973"
       sodipodi:cx="57.982754"
       id="path5484"
       style="opacity:0.5;fill:#abc837;fill-opacity:1;fill-rule:nonzero;stroke:none"
       sodipodi:type="arc" />
    <path
       sodipodi:type="arc"
       style="opacity:0.5;fill:#abc837;fill-opacity:1;fill-rule:nonzero;stroke:none"
       id="path5486"
       sodipodi:cx="57.982754"
       sodipodi:cy="265.21973"
       sodipodi:rx="77.781746"
       sodipodi:ry="99.702057"
       d="m 135.7645,265.21973 a 77.781746,99.702057 0 1 1 -0.001,-0.54728"
       transform="matrix(0.03421424,-0.43986164,0.35446165,-0.04778323,208.54844,-95.463272)"
       sodipodi:start="0"
       sodipodi:end="6.2776962"
       sodipodi:open="true"
       inkscape:transform-center-x="29.478343"
       inkscape:transform-center-y="-18.062274" />
    <path
       sodipodi:open="true"
       sodipodi:end="6.2776962"
       sodipodi:start="0"
       transform="matrix(0.16616068,-0.02572342,0.06623006,0.17701444,180.92969,-165.045)"
       d="m 135.7645,265.21973 a 77.781746,99.702057 0 1 1 -0.001,-0.54728"
       sodipodi:ry="99.702057"
       sodipodi:rx="77.781746"
       sodipodi:cy="265.21973"
       sodipodi:cx="57.982754"
       id="path5488"
       style="opacity:0.5;fill:#abc837;fill-opacity:1;fill-rule:nonzero;stroke:none"
       sodipodi:type="arc" />
    <path
       sodipodi:nodetypes="cssssscssssssc"
       inkscape:connector-curvature="0"
       id="path5490"
       d="m 175.47869,-153.08956 c 0.0707,-2.06621 16.44422,-23.93032 18.06229,-22.31221 1.85485,1.85484 1.57743,17.69724 14.87484,26.56215 3.89197,2.59468 11.10694,-17.24083 14.87478,-19.12475 3.55084,-1.77542 1.43349,18.93927 9.56239,14.87481 3.83413,-1.91705 3.75137,-7.50276 5.31242,-10.62485 11.85623,-23.71246 8.00276,-3.35319 18.06226,0 0.0531,0.0178 15.58029,-29.04417 19.12475,-25.49968 3.2919,3.29188 3.18918,14.87647 7.43744,19.12475 1.34961,1.34965 24.19974,-24.67467 30.81212,-18.06228 1.36694,1.36694 4.76952,14.43115 6.37493,16.99978 19.47943,31.16717 9.70185,-2.12499 28.68708,-2.12499 1.77087,0 0,3.54168 0,5.31246 0,17.2511 13.14645,7.04082 18.06232,2.12498"
       style="fill:#e3e2db;fill-opacity:1;fill-rule:nonzero;stroke:#28170b;stroke-width:16.00000191;stroke-linecap:round;stroke-linejoin:round;stroke-miterlimit:4;stroke-opacity:1;stroke-dasharray:none" />
    <path
       inkscape:connector-curvature="0"
       id="path5492"
       d="m 233.14047,-278.32716 c 1.637,2.93233 -1.50125,8.26692 0,11.26939 0.74493,1.48975 19.53361,-5.3793 19.53361,-1.50259 0,2.97007 -15.42224,14.62942 -12.0207,18.03099 0.22981,0.22982 3.32189,0.14485 3.75649,0 8.77147,-2.92382 2.37733,0.49382 3.75641,6.01034 0.49809,1.99222 1.09327,3.96356 1.50262,6.01033"
       style="fill:#e3e2db;fill-opacity:1;fill-rule:nonzero;stroke:#28170b;stroke-width:16.00000191;stroke-linecap:round;stroke-linejoin:round;stroke-miterlimit:4;stroke-opacity:1;stroke-dasharray:none" />
    <path
       inkscape:connector-curvature="0"
       id="path5494"
       d="m 347.33678,-98.76847 c -2.37701,-1.25484 -6.61165,1.20192 -9.01545,0 -1.70068,-0.850323 1.3028,-10.7178 -0.75131,-12.77195 -5.56388,-5.56389 -21.13428,0 -27.79779,0 -2.42692,0 -8.47169,-7.5129 -18.7823,-7.5129"
       style="fill:#e3e2db;fill-opacity:1;fill-rule:nonzero;stroke:#28170b;stroke-width:16.00000191;stroke-linecap:round;stroke-linejoin:round;stroke-miterlimit:4;stroke-opacity:1;stroke-dasharray:none" />
  </g>
</svg>
