<?xml version="1.0" encoding="UTF-8" standalone="no"?>
<!-- Created with Inkscape (http://www.inkscape.org/) -->

<svg
   xmlns:dc="http://purl.org/dc/elements/1.1/"
   xmlns:cc="http://creativecommons.org/ns#"
   xmlns:rdf="http://www.w3.org/1999/02/22-rdf-syntax-ns#"
   xmlns:svg="http://www.w3.org/2000/svg"
   xmlns="http://www.w3.org/2000/svg"
   xmlns:xlink="http://www.w3.org/1999/xlink"
   xmlns:sodipodi="http://sodipodi.sourceforge.net/DTD/sodipodi-0.dtd"
   xmlns:inkscape="http://www.inkscape.org/namespaces/inkscape"
   width="128"
   height="128"
   id="svg2"
   version="1.1"
   inkscape:version="0.48.2 r9819"
   sodipodi:docname="bubble.svg"
   inkscape:export-filename="/Users/ben/Dev/whathaveidone/assets/graphics/bubble.png"
   inkscape:export-xdpi="90"
   inkscape:export-ydpi="90">
  <defs
     id="defs4">
    <linearGradient
       inkscape:collect="always"
       id="linearGradient4008">
      <stop
         style="stop-color:#f9f9f9;stop-opacity:1"
         offset="0"
         id="stop4010" />
      <stop
         style="stop-color:#e6e6e6;stop-opacity:1"
         offset="1"
         id="stop4012" />
    </linearGradient>
    <filter
       id="filter3967"
       inkscape:label="Drop shadow"
       width="1.5"
       height="1.5"
       x="-.25"
       y="-.25">
      <feGaussianBlur
         id="feGaussianBlur3969"
         in="SourceAlpha"
         stdDeviation="2"
         result="blur" />
      <feColorMatrix
         id="feColorMatrix3971"
         result="bluralpha"
         type="matrix"
         values="1 0 0 0 0 0 1 0 0 0 0 0 1 0 0 0 0 0 0.25 0 " />
      <feOffset
         id="feOffset3973"
         in="bluralpha"
         dx="4"
         dy="4"
         result="offsetBlur" />
      <feMerge
         id="feMerge3975">
        <feMergeNode
           id="feMergeNode3977"
           in="offsetBlur" />
        <feMergeNode
           id="feMergeNode3979"
           in="SourceGraphic" />
      </feMerge>
    </filter>
    <radialGradient
       inkscape:collect="always"
       xlink:href="#linearGradient4008"
       id="radialGradient4014"
       cx="67.509842"
       cy="970.35693"
       fx="67.509842"
       fy="970.35693"
       r="86.165014"
       gradientTransform="matrix(0.48910744,0.38476467,-0.59980769,0.76247076,616.51783,205.027)"
       gradientUnits="userSpaceOnUse" />
  </defs>
  <sodipodi:namedview
     id="base"
     pagecolor="#ffffff"
     bordercolor="#666666"
     borderopacity="1.0"
     inkscape:pageopacity="0.0"
     inkscape:pageshadow="2"
     inkscape:zoom="1.979899"
     inkscape:cx="39.78824"
     inkscape:cy="54.488765"
     inkscape:document-units="px"
     inkscape:current-layer="layer1"
     showgrid="true"
     inkscape:window-width="1276"
     inkscape:window-height="756"
     inkscape:window-x="4"
     inkscape:window-y="0"
     inkscape:window-maximized="1"
     inkscape:snap-global="false">
    <inkscape:grid
       type="xygrid"
       id="grid2985"
       empspacing="4"
       visible="true"
       enabled="true"
       snapvisiblegridlinesonly="true"
       spacingx="4px"
       spacingy="4px" />
  </sodipodi:namedview>
  <metadata
     id="metadata7">
    <rdf:RDF>
      <cc:Work
         rdf:about="">
        <dc:format>image/svg+xml</dc:format>
        <dc:type
           rdf:resource="http://purl.org/dc/dcmitype/StillImage" />
        <dc:title />
      </cc:Work>
    </rdf:RDF>
  </metadata>
  <g
     inkscape:label="Layer 1"
     inkscape:groupmode="layer"
     id="layer1"
     transform="translate(0,-924.36218)">
    <g
       id="g3883"
       transform="matrix(0.89884126,0,0,0.89884126,4.4742066,99.901036)"
       style="filter:url(#filter3967);fill-opacity:1;fill:url(#radialGradient4014)">
      <path
         transform="matrix(0.06715156,0,0,0.06715156,113.7023,1035.4924)"
         d="M 112,64 C 112,90.509668 90.509668,112 64,112 37.490332,112 16,90.509668 16,64 16,37.490332 37.490332,16 64,16 c 26.509668,0 48,21.490332 48,48 z"
         sodipodi:ry="48"
         sodipodi:rx="48"
         sodipodi:cy="64"
         sodipodi:cx="64"
         id="path3068"
         style="fill:url(#radialGradient4014);fill-opacity:1;fill-rule:nonzero;stroke:#cccccc;stroke-width:66.27059936999999934;stroke-linecap:round;stroke-linejoin:round;stroke-miterlimit:4;stroke-opacity:1;stroke-dasharray:none"
         sodipodi:type="arc" />
      <path
         sodipodi:type="arc"
         style="fill:url(#radialGradient4014);fill-opacity:1;fill-rule:nonzero;stroke:#cccccc;stroke-width:44.01211929000000112;stroke-linecap:round;stroke-linejoin:round;stroke-miterlimit:4;stroke-opacity:1;stroke-dasharray:none"
         id="path3070"
         sodipodi:cx="64"
         sodipodi:cy="64"
         sodipodi:rx="48"
         sodipodi:ry="48"
         d="M 112,64 C 112,90.509668 90.509668,112 64,112 37.490332,112 16,90.509668 16,64 16,37.490332 37.490332,16 64,16 c 26.509668,0 48,21.490332 48,48 z"
         transform="matrix(0.10111248,0,0,0.10111248,98.100978,1025.8911)" />
      <path
         transform="matrix(0.15500239,0,0,0.15500239,80.079847,1007.0142)"
         d="M 112,64 C 112,90.509668 90.509668,112 64,112 37.490332,112 16,90.509668 16,64 16,37.490332 37.490332,16 64,16 c 26.509668,0 48,21.490332 48,48 z"
         sodipodi:ry="48"
         sodipodi:rx="48"
         sodipodi:cy="64"
         sodipodi:cx="64"
         id="path3072"
         style="fill:url(#radialGradient4014);fill-opacity:1;fill-rule:nonzero;stroke:#cccccc;stroke-width:28.71035767000000050;stroke-linecap:round;stroke-linejoin:round;stroke-miterlimit:4;stroke-opacity:1;stroke-dasharray:none"
         sodipodi:type="arc" />
      <path
         sodipodi:nodetypes="scscscscscscscscscsscs"
         inkscape:connector-curvature="0"
         id="path3074"
         d="m 75.354719,932.15473 c -5.035949,0 -9.300371,4.18208 -10.748871,9.94343 -4.800311,-2.87411 -11.1593,-9.97769 -17.748906,-9.97769 -9.444047,0 -17.48697,8.91434 -22.603425,14.32276 -9.179044,0.15915 -17.4758703,2.99677 -17.4758703,10.77291 0,4.35019 1.3920819,11.7067 5.0350863,14.32242 -3.7247325,2.4172 -4.1230545,5.44367 -4.1230545,8.7458 0,4.72647 4.5628445,8.9084 11.5638535,11.50316 1.446469,6.63784 6.817699,13.20808 15.109858,13.20808 3.99785,0 9.197534,-2.7024 12.092718,-4.6572 5.134183,1.9858 12.04931,6.6313 18.508695,6.6313 6.459387,0 11.599328,-4.6455 16.733514,-6.6313 2.895182,1.9548 9.039584,3.7645 13.004754,3.1194 4.851134,-0.7892 10.706469,-4.09469 13.492959,-9.46991 7.07719,-1.70545 12.26873,-7.18978 12.26873,-13.70353 0,-2.50452 -1.98552,-4.86191 -3.3306,-6.90751 1.28883,-1.30675 3.3306,-3.31915 3.3306,-5.57055 0,-1.36055 -1.83418,-3.39168 -2.3571,-4.4733 0.54933,-1.66654 2.3571,-2.64391 2.3571,-4.43959 0,-11.81389 -12.6228,-21.39095 -28.193779,-21.39095 -2.648535,0 -5.212831,0.28969 -7.643159,0.80773 -2.036073,-3.71177 -5.43018,-6.15546 -9.273103,-6.15546 z"
         style="fill:url(#radialGradient4014);fill-opacity:1;fill-rule:nonzero;stroke:#cccccc;stroke-width:4.45017384999999965;stroke-linecap:round;stroke-linejoin:round;stroke-miterlimit:4;stroke-opacity:1;stroke-dasharray:none" />
    </g>
  </g>
</svg>
