<?xml version="1.0" encoding="UTF-8" standalone="no"?>
<!-- Created with Inkscape (http://www.inkscape.org/) -->

<svg
   xmlns:dc="http://purl.org/dc/elements/1.1/"
   xmlns:cc="http://creativecommons.org/ns#"
   xmlns:rdf="http://www.w3.org/1999/02/22-rdf-syntax-ns#"
   xmlns:svg="http://www.w3.org/2000/svg"
   xmlns="http://www.w3.org/2000/svg"
   xmlns:sodipodi="http://sodipodi.sourceforge.net/DTD/sodipodi-0.dtd"
   xmlns:inkscape="http://www.inkscape.org/namespaces/inkscape"
   width="512"
   height="256"
   id="svg7552"
   version="1.1"
   inkscape:version="0.48.2 r9819"
   sodipodi:docname="New document 27">
  <defs
     id="defs7554">
    <clipPath
       clipPathUnits="userSpaceOnUse"
       id="clipPath7688">
      <path
         style="fill:#f9f9f9;fill-opacity:1;fill-rule:nonzero;stroke:#cccccc;stroke-width:4;stroke-linecap:round;stroke-linejoin:round;stroke-miterlimit:4;stroke-opacity:1"
         d="m 16.271187,-54.23729 c 11.356222,4.68762 26.54474,2.14269 40.683101,8.61567 10.364018,4.74498 21.473774,7.43125 33.088135,8.65967 2.505996,0.26505 6.34528,2.83011 7.586043,0.59758 8.601194,-15.47629 26.658514,-21.6074 48.310584,-23.32557 1.77401,-0.14077 3.74103,0.4339 5.39119,-0.33616 7.15249,-3.33774 19.5051,-12.41101 22.83396,-5.16224 18.04803,39.30061 56.30069,10.98762 77.49682,10.95105 l 0,145.35593 -235.389833,0 z"
         id="path7690"
         inkscape:connector-curvature="0"
         sodipodi:nodetypes="csssssscccc" />
    </clipPath>
    <clipPath
       clipPathUnits="userSpaceOnUse"
       id="clipPath7715">
      <path
         style="fill:#f9f9f9;fill-opacity:1;fill-rule:nonzero;stroke:#cccccc;stroke-width:4;stroke-linecap:round;stroke-linejoin:round;stroke-miterlimit:4;stroke-opacity:1"
         d="m 236.47458,-210.44068 323.7966,0 0,185.49153 c -26.65605,-12.28454 -84.17755,-27.09376 -110.97708,-22.06592 -9.98802,1.87384 -14.15265,-12.83897 -14.27964,-24.06208 -0.0228,-2.01733 -4.05027,0.29923 -6.1104,0.53313 -6.7446,0.76577 -13.74197,2.14487 -21.01909,4.2461 -3.92788,1.13416 -8.37709,-1.40007 -12.05998,0.0318 -9.32795,3.6266 -17.17004,0.36144 -29.69449,4.53336 -11.80872,3.93351 -28.38737,18.44131 -39.57157,28.0279 -1.96535,1.68461 -4.1406,-3.05379 -5.94457,-4.87494 -6.41265,-6.47373 -10.52473,-15.5001 -11.72969,-27.8669 -0.26753,-2.74573 -5.2239,1.83605 -7.83586,2.84643 -21.52474,8.32635 -43.04949,20.87428 -64.57423,38.65111 z"
         id="path7717"
         inkscape:connector-curvature="0"
         sodipodi:nodetypes="cccsssssssssscc" />
    </clipPath>
  </defs>
  <sodipodi:namedview
     id="base"
     pagecolor="#ffffff"
     bordercolor="#666666"
     borderopacity="1.0"
     inkscape:pageopacity="0.0"
     inkscape:pageshadow="2"
     inkscape:zoom="0.4609375"
     inkscape:cx="276.51744"
     inkscape:cy="124.04373"
     inkscape:current-layer="layer1"
     showgrid="true"
     inkscape:document-units="px"
     inkscape:grid-bbox="true"
     inkscape:window-width="1276"
     inkscape:window-height="756"
     inkscape:window-x="4"
     inkscape:window-y="0"
     inkscape:window-maximized="1" />
  <metadata
     id="metadata7557">
    <rdf:RDF>
      <cc:Work
         rdf:about="">
        <dc:format>image/svg+xml</dc:format>
        <dc:type
           rdf:resource="http://purl.org/dc/dcmitype/StillImage" />
        <dc:title></dc:title>
      </cc:Work>
    </rdf:RDF>
  </metadata>
  <g
     id="layer1"
     inkscape:label="Layer 1"
     inkscape:groupmode="layer"
     transform="translate(0,192)">
    <path
       style="fill:#e3e2db;fill-opacity:1;fill-rule:nonzero;stroke:#28170b;stroke-width:16.00000191;stroke-linecap:round;stroke-linejoin:round;stroke-miterlimit:4;stroke-opacity:1;display:inline"
       d="m 226.56953,-30.504355 c 0,46.49708 -43.4423,84.1904 -97.03101,84.1904 -53.58873,0 -97.03096,-37.69332 -97.03096,-84.1904 4.3244,-206.036405 201.00188,-176.598435 194.06197,0 z"
       id="path5480"
       inkscape:connector-curvature="0"
       sodipodi:nodetypes="cscc"
       clip-path="url(#clipPath7688)" />
    <path
       sodipodi:type="arc"
       style="opacity:0.5;fill:#abc837;fill-opacity:1;fill-rule:nonzero;stroke:none;display:inline"
       id="path5486"
       sodipodi:cx="57.982754"
       sodipodi:cy="265.21973"
       sodipodi:rx="77.781746"
       sodipodi:ry="99.702057"
       d="m 135.7645,265.21973 a 77.781746,99.702057 0 1 1 -0.001,-0.54728"
       transform="matrix(0.03421424,-0.43986164,0.35446165,-0.04778323,68.36255,20.886835)"
       sodipodi:start="0"
       sodipodi:end="6.2776962"
       sodipodi:open="true"
       inkscape:transform-center-x="29.478343"
       inkscape:transform-center-y="-18.062274" />
    <path
       sodipodi:open="true"
       sodipodi:end="6.2776962"
       sodipodi:start="0"
       transform="matrix(0.16616068,-0.02572342,0.06623006,0.17701444,40.7438,-48.694895)"
       d="m 135.7645,265.21973 a 77.781746,99.702057 0 1 1 -0.001,-0.54728"
       sodipodi:ry="99.702057"
       sodipodi:rx="77.781746"
       sodipodi:cy="265.21973"
       sodipodi:cx="57.982754"
       id="path5488"
       style="opacity:0.5;fill:#abc837;fill-opacity:1;fill-rule:nonzero;stroke:none;display:inline"
       sodipodi:type="arc" />
    <path
       sodipodi:nodetypes="cssssscssssssc"
       inkscape:connector-curvature="0"
       id="path5490"
       d="m 35.2928,-36.739455 c 0.0707,-2.06621 16.44422,-23.93032 18.06229,-22.31221 1.85485,1.85484 1.57743,17.69724 14.87484,26.56215 3.89197,2.59468 11.10694,-17.24083 14.87478,-19.12475 3.55084,-1.77542 1.43349,18.93927 9.56239,14.87481 3.83413,-1.91705 3.75137,-7.50276 5.31242,-10.62485 11.85623,-23.71246 8.00276,-3.35319 18.06226,0 0.0531,0.0178 15.58029,-29.04417 19.12475,-25.49968 3.2919,3.29188 3.18918,14.87647 7.43744,19.12475 1.34961,1.34965 24.19974,-24.67467 30.81212,-18.06228 1.36694,1.36694 4.76952,14.43115 6.37493,16.99978 19.47943,31.16717 9.70185,-2.12499 28.68708,-2.12499 1.77087,0 0,3.54168 0,5.31246 0,17.2511 13.14645,7.04082 18.06232,2.12498"
       style="fill:none;fill-opacity:1;fill-rule:nonzero;stroke:#28170b;stroke-width:16.00000191000000171;stroke-linecap:round;stroke-linejoin:round;stroke-miterlimit:4;stroke-opacity:1;stroke-dasharray:none;display:inline" />
    <path
       inkscape:connector-curvature="0"
       id="path5494"
       d="m 207.15089,17.581635 c -2.37701,-1.25484 -6.61165,1.20192 -9.01545,0 -1.70068,-0.85032 1.3028,-10.7177996 -0.75131,-12.7719496 -5.56388,-5.56388969 -21.13428,0 -27.79779,0 -2.42692,0 -8.47169,-7.5128997 -18.7823,-7.5128997"
       style="fill:#e3e2db;fill-opacity:1;fill-rule:nonzero;stroke:#28170b;stroke-width:16.00000191;stroke-linecap:round;stroke-linejoin:round;stroke-miterlimit:4;stroke-opacity:1;stroke-dasharray:none;display:inline" />
    <g
       id="g8229"
       transform="matrix(-1,0,0,-1,782.89356,-125.15474)">
      <path
         clip-path="url(#clipPath7715)"
         style="fill:#e3e2db;fill-opacity:1;fill-rule:nonzero;stroke:#28170b;stroke-width:16.00000191;stroke-linecap:round;stroke-linejoin:round;stroke-miterlimit:4;stroke-opacity:1;display:inline"
         d="m 481.48478,-30.504355 c 0,46.49708 -43.4423,84.1904 -97.03101,84.1904 -53.58873,0 -97.03096,-37.69332 -97.03096,-84.1904 0.0788,-3.755493 0.22155,-7.432752 0.42579,-11.032314 11.00077,-193.882051 200.44959,-162.347201 193.63618,11.032314 z"
         id="path7661"
         inkscape:connector-curvature="0"
         sodipodi:nodetypes="cscsc" />
      <path
         sodipodi:type="arc"
         style="opacity:0.5;fill:#abc837;fill-opacity:1;fill-rule:nonzero;stroke:none;display:inline"
         id="path7663"
         sodipodi:cx="57.982754"
         sodipodi:cy="265.21973"
         sodipodi:rx="77.781746"
         sodipodi:ry="99.702057"
         d="m 135.7645,265.21973 c 0,55.06392 -34.82407,99.70205 -77.781746,99.70205 -42.957672,0 -77.781746,-44.63813 -77.781746,-99.70205 0,-55.06393 34.824074,-99.70206 77.781746,-99.70206 42.791036,0 77.545686,44.30529 77.780576,99.15478"
         transform="matrix(0.18397998,0.1346523,-0.10622089,0.23322463,344.19557,-154.65837)"
         sodipodi:start="0"
         sodipodi:end="6.2776962"
         sodipodi:open="true" />
      <path
         sodipodi:open="true"
         sodipodi:end="6.2776962"
         sodipodi:start="0"
         transform="matrix(0.31654721,0.02462232,0.03438727,0.25508894,381.57787,-188.56837)"
         d="m 135.7645,265.21973 c 0,55.06392 -34.82407,99.70205 -77.781746,99.70205 -42.957672,0 -77.781746,-44.63813 -77.781746,-99.70205 0,-55.06393 34.824074,-99.70206 77.781746,-99.70206 42.791036,0 77.545686,44.30529 77.780576,99.15478"
         sodipodi:ry="99.702057"
         sodipodi:rx="77.781746"
         sodipodi:cy="265.21973"
         sodipodi:cx="57.982754"
         id="path7665"
         style="opacity:0.5;fill:#abc837;fill-opacity:1;fill-rule:nonzero;stroke:none;display:inline"
         sodipodi:type="arc" />
      <path
         sodipodi:nodetypes="cssssscssssssc"
         inkscape:connector-curvature="0"
         id="path7671"
         d="m 290.20805,-36.739455 c 0.0707,-2.06621 16.44422,-23.93032 18.06229,-22.31221 1.85485,1.85484 1.57743,17.69724 14.87484,26.56215 3.89197,2.59468 11.10694,-17.24083 14.87478,-19.12475 3.55084,-1.77542 1.43349,18.93927 9.56239,14.87481 3.83413,-1.91705 3.75137,-7.50276 5.31242,-10.62485 11.85623,-23.71246 8.00276,-3.35319 18.06226,0 0.0531,0.0178 15.58029,-29.04417 19.12475,-25.49968 3.2919,3.29188 3.18918,14.87647 7.43744,19.12475 1.34961,1.34965 24.19974,-24.67467 30.81212,-18.06228 1.36694,1.36694 4.76952,14.43115 6.37493,16.99978 19.47943,31.16717 9.70185,-2.12499 28.68708,-2.12499 1.77087,0 0,3.54168 0,5.31246 0,17.2511 13.14645,7.04082 18.06232,2.12498"
         style="fill:none;stroke:#28170b;stroke-width:16.00000191;stroke-linecap:round;stroke-linejoin:round;stroke-miterlimit:4;stroke-opacity:1;stroke-dasharray:none;display:inline" />
      <path
         inkscape:connector-curvature="0"
         id="path7673"
         d="m 347.86983,-161.97706 c 1.637,2.93233 -1.50125,8.26692 0,11.26939 0.74493,1.48975 19.53361,-5.3793 19.53361,-1.50259 0,2.97007 -15.42224,14.62942 -12.0207,18.03099 0.22981,0.22982 3.32189,0.14485 3.75649,0 8.77147,-2.92382 2.37733,0.49382 3.75641,6.01034 0.49809,1.99222 1.09327,3.96356 1.50262,6.01033"
         style="fill:#e3e2db;fill-opacity:1;fill-rule:nonzero;stroke:#28170b;stroke-width:16.00000191;stroke-linecap:round;stroke-linejoin:round;stroke-miterlimit:4;stroke-opacity:1;stroke-dasharray:none;display:inline" />
      <path
         sodipodi:nodetypes="cc"
         transform="translate(0,-192)"
         inkscape:connector-curvature="0"
         id="path7719"
         d="m 289.17072,153.60135 c -2.68936,-9.68416 0.0395,-19.32359 1.62712,-28.65134"
         style="fill:none;stroke:#28170b;stroke-width:16;stroke-linecap:round;stroke-linejoin:round;stroke-miterlimit:4;stroke-opacity:1;stroke-dasharray:none" />
    </g>
  </g>
</svg>
