<?xml version="1.0" encoding="UTF-8" standalone="no"?>
<!-- Created with Inkscape (http://www.inkscape.org/) -->

<svg
   xmlns:dc="http://purl.org/dc/elements/1.1/"
   xmlns:cc="http://creativecommons.org/ns#"
   xmlns:rdf="http://www.w3.org/1999/02/22-rdf-syntax-ns#"
   xmlns:svg="http://www.w3.org/2000/svg"
   xmlns="http://www.w3.org/2000/svg"
   xmlns:xlink="http://www.w3.org/1999/xlink"
   xmlns:sodipodi="http://sodipodi.sourceforge.net/DTD/sodipodi-0.dtd"
   xmlns:inkscape="http://www.inkscape.org/namespaces/inkscape"
   width="256"
   height="256"
   id="svg7012"
   version="1.1"
   inkscape:version="0.48.2 r9819"
   sodipodi:docname="icons.svg"
   inkscape:export-filename="/Users/ben/Dev/whathaveidone/assets/graphics/icons.png"
   inkscape:export-xdpi="90"
   inkscape:export-ydpi="90">
  <defs
     id="defs7014">
    <linearGradient
       inkscape:collect="always"
       id="linearGradient3107">
      <stop
         style="stop-color:#cdde87;stop-opacity:1"
         offset="0"
         id="stop3109" />
      <stop
         style="stop-color:#bcd35f;stop-opacity:1"
         offset="1"
         id="stop3111" />
    </linearGradient>
    <linearGradient
       inkscape:collect="always"
       id="linearGradient8744">
      <stop
         style="stop-color:#ff0000;stop-opacity:1"
         offset="0"
         id="stop8746" />
      <stop
         style="stop-color:#ff5555;stop-opacity:1"
         offset="1"
         id="stop8748" />
    </linearGradient>
    <linearGradient
       inkscape:collect="always"
       id="linearGradient8690">
      <stop
         style="stop-color:#f9f9f9;stop-opacity:1"
         offset="0"
         id="stop8692" />
      <stop
         style="stop-color:#e6e6e6;stop-opacity:1"
         offset="1"
         id="stop8694" />
    </linearGradient>
    <linearGradient
       inkscape:collect="always"
       id="linearGradient8655">
      <stop
         style="stop-color:#ffe680;stop-opacity:1"
         offset="0"
         id="stop8657" />
      <stop
         style="stop-color:#ffd42a;stop-opacity:1"
         offset="1"
         id="stop8659" />
    </linearGradient>
    <linearGradient
       inkscape:collect="always"
       id="linearGradient8640">
      <stop
         style="stop-color:#cccccc;stop-opacity:1"
         offset="0"
         id="stop8642" />
      <stop
         style="stop-color:#808080;stop-opacity:1"
         offset="1"
         id="stop8644" />
    </linearGradient>
    <linearGradient
       inkscape:collect="always"
       id="linearGradient7839">
      <stop
         style="stop-color:#280b0b;stop-opacity:1"
         offset="0"
         id="stop7841" />
      <stop
         style="stop-color:#501616;stop-opacity:1"
         offset="1"
         id="stop7843" />
    </linearGradient>
    <linearGradient
       inkscape:collect="always"
       id="linearGradient7819">
      <stop
         style="stop-color:#a02c2c;stop-opacity:1"
         offset="0"
         id="stop7821" />
      <stop
         style="stop-color:#782121;stop-opacity:1"
         offset="1"
         id="stop7823" />
    </linearGradient>
    <radialGradient
       inkscape:collect="always"
       xlink:href="#linearGradient7819"
       id="radialGradient7837"
       gradientUnits="userSpaceOnUse"
       gradientTransform="matrix(1.0097415e-8,0.8917514,-0.8322157,0,58.211072,3.4639553)"
       cx="32"
       cy="31.495527"
       fx="32"
       fy="31.495527"
       r="26.91333" />
    <radialGradient
       inkscape:collect="always"
       xlink:href="#linearGradient7839"
       id="radialGradient7845"
       cx="32"
       cy="31.495527"
       fx="32"
       fy="31.495527"
       r="26.91333"
       gradientTransform="matrix(0,0.89175137,-0.83221569,-1.1056686e-6,58.211073,3.4639918)"
       gradientUnits="userSpaceOnUse" />
    <radialGradient
       inkscape:collect="always"
       xlink:href="#linearGradient7839"
       id="radialGradient7853"
       gradientUnits="userSpaceOnUse"
       gradientTransform="matrix(0,0.89175137,-0.83221569,-1.1056686e-6,122.21107,-188.53601)"
       cx="32"
       cy="31.495527"
       fx="32"
       fy="31.495527"
       r="26.91333" />
    <radialGradient
       inkscape:collect="always"
       xlink:href="#linearGradient7839"
       id="radialGradient8601"
       gradientUnits="userSpaceOnUse"
       gradientTransform="matrix(0,0.89175137,-0.83221569,-1.1056686e-6,58.21107,-188.53601)"
       cx="32"
       cy="31.495527"
       fx="32"
       fy="31.495527"
       r="26.91333" />
    <radialGradient
       inkscape:collect="always"
       xlink:href="#linearGradient7819"
       id="radialGradient8609"
       gradientUnits="userSpaceOnUse"
       gradientTransform="matrix(1.0097415e-8,0.8917514,-0.8322157,0,58.211072,3.4639553)"
       cx="32"
       cy="31.495527"
       fx="32"
       fy="31.495527"
       r="26.91333" />
    <clipPath
       clipPathUnits="userSpaceOnUse"
       id="clipPath8617">
      <rect
         style="opacity:0.25;fill:#ffffff;fill-opacity:1;fill-rule:nonzero;stroke:#000000;stroke-width:2;stroke-linecap:round;stroke-linejoin:round;stroke-miterlimit:4;stroke-opacity:1;stroke-dasharray:none"
         id="rect8619"
         width="31.636362"
         height="62.909092"
         x="-0.36363602"
         y="-0.36363602" />
    </clipPath>
    <radialGradient
       inkscape:collect="always"
       xlink:href="#linearGradient8640"
       id="radialGradient8646"
       cx="32.727272"
       cy="32.427937"
       fx="32.727272"
       fy="32.427937"
       r="23.389784"
       gradientTransform="matrix(1.1461348,-1.1203788,0.71913157,0.73566408,-28.40031,-82.76883)"
       gradientUnits="userSpaceOnUse" />
    <radialGradient
       inkscape:collect="always"
       xlink:href="#linearGradient8655"
       id="radialGradient8661"
       cx="92.36364"
       cy="35.974537"
       fx="92.36364"
       fy="35.974537"
       r="27.774561"
       gradientTransform="matrix(0.7074855,0.60754356,-0.71031412,0.82716219,52.958294,-178.45276)"
       gradientUnits="userSpaceOnUse" />
    <linearGradient
       inkscape:collect="always"
       xlink:href="#linearGradient8690"
       id="linearGradient8696"
       x1="164"
       y1="24"
       x2="168"
       y2="28"
       gradientUnits="userSpaceOnUse" />
    <linearGradient
       inkscape:collect="always"
       xlink:href="#linearGradient8690"
       id="linearGradient8705"
       gradientUnits="userSpaceOnUse"
       x1="164"
       y1="24"
       x2="168"
       y2="28" />
    <linearGradient
       inkscape:collect="always"
       xlink:href="#linearGradient8744"
       id="linearGradient8750"
       x1="144"
       y1="12"
       x2="180"
       y2="48"
       gradientUnits="userSpaceOnUse" />
    <linearGradient
       inkscape:collect="always"
       xlink:href="#linearGradient8744"
       id="linearGradient4260"
       gradientUnits="userSpaceOnUse"
       x1="144"
       y1="12"
       x2="180"
       y2="48" />
    <linearGradient
       inkscape:collect="always"
       xlink:href="#linearGradient8744"
       id="linearGradient4262"
       gradientUnits="userSpaceOnUse"
       x1="144"
       y1="12"
       x2="180"
       y2="48" />
    <linearGradient
       inkscape:collect="always"
       xlink:href="#linearGradient8744"
       id="linearGradient4264"
       gradientUnits="userSpaceOnUse"
       x1="144"
       y1="12"
       x2="180"
       y2="48" />
    <linearGradient
       inkscape:collect="always"
       xlink:href="#linearGradient8744"
       id="linearGradient4266"
       gradientUnits="userSpaceOnUse"
       x1="144"
       y1="12"
       x2="180"
       y2="48" />
    <linearGradient
       inkscape:collect="always"
       xlink:href="#linearGradient8744"
       id="linearGradient4268"
       gradientUnits="userSpaceOnUse"
       x1="144"
       y1="12"
       x2="180"
       y2="48" />
    <linearGradient
       inkscape:collect="always"
       xlink:href="#linearGradient8744"
       id="linearGradient4270"
       gradientUnits="userSpaceOnUse"
       x1="144"
       y1="12"
       x2="180"
       y2="48" />
    <linearGradient
       inkscape:collect="always"
       xlink:href="#linearGradient8744"
       id="linearGradient4272"
       gradientUnits="userSpaceOnUse"
       x1="144"
       y1="12"
       x2="180"
       y2="48" />
    <filter
       id="filter4274"
       inkscape:label="Button"
       x="0"
       y="0"
       width="1"
       height="1"
       inkscape:menu="Bevels"
       inkscape:menu-tooltip="Soft bevel, slightly depressed middle"
       color-interpolation-filters="sRGB">
      <feGaussianBlur
         id="feGaussianBlur4276"
         stdDeviation="2.3"
         in="SourceAlpha"
         result="result0" />
      <feMorphology
         id="feMorphology4278"
         in="SourceAlpha"
         radius="6.6"
         result="result1" />
      <feGaussianBlur
         id="feGaussianBlur4280"
         stdDeviation="8.9"
         in="result1" />
      <feColorMatrix
         id="feColorMatrix4282"
         values="1 0 0 0 0 0 1 0 0 0 0 0 1 0 0 0 0 0 0.3 0"
         result="result91" />
      <feComposite
         id="feComposite4284"
         in2="result91"
         in="result0"
         operator="out"
         result="result2" />
      <feGaussianBlur
         id="feGaussianBlur4286"
         stdDeviation="1.7"
         result="result4" />
      <feDiffuseLighting
         id="feDiffuseLighting4288"
         surfaceScale="10"
         result="result92">
        <feDistantLight
           id="feDistantLight4290"
           azimuth="225"
           elevation="45" />
      </feDiffuseLighting>
      <feBlend
         id="feBlend4292"
         in2="SourceGraphic"
         mode="multiply"
         result="result93" />
      <feComposite
         id="feComposite4294"
         in2="SourceAlpha"
         operator="in"
         result="result3" />
      <feSpecularLighting
         id="feSpecularLighting4296"
         in="result4"
         surfaceScale="5"
         specularExponent="17.89999962"
         result="result94">
        <feDistantLight
           id="feDistantLight4298"
           azimuth="225"
           elevation="45" />
      </feSpecularLighting>
      <feComposite
         id="feComposite4300"
         in2="result3"
         operator="atop" />
    </filter>
    <radialGradient
       inkscape:collect="always"
       xlink:href="#linearGradient3107"
       id="radialGradient3113"
       cx="31.999996"
       cy="160"
       fx="31.999996"
       fy="160"
       r="25.465693"
       gradientUnits="userSpaceOnUse"
       gradientTransform="matrix(0.94346838,0.25280141,-0.25881804,0.9659261,43.219898,-2.6378192)" />
  </defs>
  <sodipodi:namedview
     id="base"
     pagecolor="#ffffff"
     bordercolor="#666666"
     borderopacity="1.0"
     inkscape:pageopacity="0.0"
     inkscape:pageshadow="2"
     inkscape:zoom="1.9445436"
     inkscape:cx="167.47212"
     inkscape:cy="123.93555"
     inkscape:current-layer="layer1"
     showgrid="true"
     inkscape:document-units="px"
     inkscape:grid-bbox="true"
     inkscape:snap-global="true"
     inkscape:window-width="1276"
     inkscape:window-height="756"
     inkscape:window-x="4"
     inkscape:window-y="0"
     inkscape:window-maximized="1">
    <inkscape:grid
       type="xygrid"
       id="grid7020"
       empspacing="4"
       visible="true"
       enabled="true"
       snapvisiblegridlinesonly="true"
       spacingx="4px"
       spacingy="4px" />
  </sodipodi:namedview>
  <metadata
     id="metadata7017">
    <rdf:RDF>
      <cc:Work
         rdf:about="">
        <dc:format>image/svg+xml</dc:format>
        <dc:type
           rdf:resource="http://purl.org/dc/dcmitype/StillImage" />
        <dc:title />
      </cc:Work>
    </rdf:RDF>
  </metadata>
  <g
     id="layer1"
     inkscape:label="Layer 1"
     inkscape:groupmode="layer"
     transform="translate(0,192)">
    <path
       style="font-size:24px;font-style:normal;font-variant:normal;font-weight:bold;font-stretch:normal;line-height:125%;letter-spacing:0px;word-spacing:0px;fill:url(#radialGradient7853);fill-opacity:1;stroke:#550000;stroke-width:4;stroke-miterlimit:4;stroke-dasharray:none;font-family:Nimbus Mono L;-inkscape-font-specification:Nimbus Mono L Bold"
       d="m 84.20962,-177.84699 c -5.097574,-0.24019 -10.942604,2.51794 -12.277666,7.79382 -0.969851,5.35995 0.584199,10.21924 4.399128,13.5695 4.606154,4.64032 9.757905,8.87512 13.281863,14.45993 1.547263,1.73128 4.381105,6.24382 7.571665,4.54973 2.321527,-1.70348 4.65636,-4.90575 6.67686,-6.90604 4.97892,-6.36743 11.79525,-11.06741 16.50325,-17.66027 2.29172,-3.50708 0.83276,-8.82254 -2.46015,-11.90404 -4.54248,-4.62404 -12.50764,-5.28369 -17.75384,-1.47962 -2.340983,0.57494 -2.087818,5.16403 -4.86188,4.40414 -1.451879,-2.52747 -3.290178,-5.18976 -6.258743,-6.01047 -1.52328,-0.61341 -3.179443,-0.90196 -4.820487,-0.81669 z"
       id="path4507"
       inkscape:connector-curvature="0"
       sodipodi:nodetypes="cccccccccccc" />
    <g
       id="g7831"
       transform="translate(128,-192)">
      <path
         style="font-size:24px;font-style:normal;font-variant:normal;font-weight:bold;font-stretch:normal;line-height:125%;letter-spacing:0px;word-spacing:0px;fill:url(#radialGradient7837);fill-opacity:1;stroke:#550000;stroke-width:4;stroke-miterlimit:4;stroke-dasharray:none;font-family:Nimbus Mono L;-inkscape-font-specification:Nimbus Mono L Bold"
         d="M 20.20962,14.153005 C 15.112046,13.91282 9.2670165,16.670947 7.931954,21.946833 c -0.9698512,5.359948 0.584199,10.219232 4.399128,13.569496 4.606154,4.640321 9.757905,8.87512 13.281863,14.459928 1.547263,1.731286 4.381105,6.243822 7.571665,4.549736 2.321527,-1.703478 4.656358,-4.905749 6.67686,-6.906039 4.978918,-6.367432 11.795247,-11.067409 16.503251,-17.660271 2.291722,-3.507082 0.83276,-8.822545 -2.460146,-11.90404 -4.542481,-4.624042 -12.507641,-5.283694 -17.753846,-1.479626 -2.340982,0.574943 -2.087817,5.164034 -4.861879,4.40414 -1.451879,-2.52747 -3.290178,-5.189754 -6.258743,-6.01047 -1.52328,-0.613405 -3.179443,-0.901952 -4.820487,-0.816682 z"
         id="path7833"
         inkscape:connector-curvature="0"
         sodipodi:nodetypes="cccccccccccc" />
      <path
         sodipodi:type="arc"
         style="opacity:0.25;fill:#ffffff;fill-opacity:1;fill-rule:nonzero;stroke:none"
         id="path7835"
         sodipodi:cx="42"
         sodipodi:cy="22"
         sodipodi:rx="2"
         sodipodi:ry="2"
         d="m 44,22 c 0,1.104569 -0.895431,2 -2,2 -1.104569,0 -2,-0.895431 -2,-2 0,-1.104569 0.895431,-2 2,-2 1.100285,0 1.99393,0.888754 1.99997,1.989022"
         sodipodi:start="0"
         sodipodi:end="6.2776962"
         sodipodi:open="true"
         transform="matrix(2.1650635,-1.25,0.875,1.5155445,-66.18267,46.658022)" />
    </g>
    <path
       style="fill:url(#radialGradient8646);fill-opacity:1;stroke:#000000;stroke-width:2;stroke-miterlimit:4;stroke-dasharray:none"
       d="m 40.747973,-118.54053 c -8.28e-4,14.91839 -0.0015,29.83678 -0.0025,44.75517 0.824986,2.2242 5.438656,2.33245 6.27759,0.0268 -0.723191,-7.71257 -1.449206,-15.42488 -2.170643,-23.137608 3.128926,-4.146272 3.539274,-9.795172 2.557799,-14.748892 -0.658653,-2.74573 -3.596774,-6.14449 -6.661934,-6.89545 z m -17.099072,0.82867 c -8.27e-4,3.94064 -0.0015,7.88128 -0.0025,11.82191 -0.983362,-0.119 -2.743478,0.53804 -2.211962,-1.09449 0,-3.57529 0,-7.15057 0,-10.72585 -0.919085,0.22415 -2.938261,-0.65176 -2.519249,0.91044 10e-5,3.63616 2.15e-4,7.27231 3.15e-4,10.90846 -0.984067,-0.1185 -2.745978,0.54087 -2.215143,-1.09252 0,-3.57546 0,-7.15092 0,-10.72638 -0.82052,0.27757 -2.873956,-0.67775 -2.565957,0.72835 0.03247,6.05422 -0.06552,12.11305 0.05053,18.164319 -0.06518,4.294265 5.023788,2.44793 3.650926,4.12014 -0.340976,14.428231 0.170288,11.401241 -0.05359,20.940991 0.826114,2.21073 3.758783,2.28178 4.580736,-0.004 -0.274053,-10.01579 0.344173,-6.52106 -0.06975,-21.66936 2.380255,-0.568824 4.15561,-2.702384 3.718061,-5.19278 0,-5.69632 0,-11.39264 0,-17.08897 -0.787181,-4.9e-4 -1.575612,0.001 -2.361998,-7.6e-4 z"
       id="path7859"
       inkscape:connector-curvature="0"
       sodipodi:nodetypes="ccccccccccccccccccccccccc" />
    <path
       sodipodi:nodetypes="cccccccccccc"
       inkscape:connector-curvature="0"
       id="path8599"
       d="m 20.20962,-177.84699 c -5.097574,-0.24019 -10.942604,2.51794 -12.277666,7.79382 -0.969851,5.35995 0.584199,10.21924 4.399128,13.5695 4.606154,4.64032 9.757905,8.87512 13.281863,14.45993 1.547263,1.73128 4.381105,6.24382 7.571665,4.54973 2.321527,-1.70348 4.65636,-4.90575 6.67686,-6.90604 4.97892,-6.36743 11.79525,-11.06741 16.50325,-17.66027 2.29172,-3.50708 0.83276,-8.82254 -2.46015,-11.90404 -4.54248,-4.62404 -12.50764,-5.28369 -17.75384,-1.47962 -2.340983,0.57494 -2.087818,5.16403 -4.86188,4.40414 -1.451879,-2.52747 -3.290178,-5.18976 -6.258743,-6.01047 -1.52328,-0.61341 -3.179443,-0.90196 -4.820487,-0.81669 z"
       style="font-size:24px;font-style:normal;font-variant:normal;font-weight:bold;font-stretch:normal;line-height:125%;letter-spacing:0px;word-spacing:0px;fill:url(#radialGradient8601);fill-opacity:1;stroke:#550000;stroke-width:4;stroke-miterlimit:4;stroke-dasharray:none;font-family:Nimbus Mono L;-inkscape-font-specification:Nimbus Mono L Bold" />
    <g
       transform="translate(64,-192)"
       id="g8603"
       clip-path="url(#clipPath8617)">
      <path
         sodipodi:nodetypes="cccccccccccc"
         inkscape:connector-curvature="0"
         id="path8605"
         d="M 20.20962,14.153005 C 15.112046,13.91282 9.2670165,16.670947 7.931954,21.946833 c -0.9698512,5.359948 0.584199,10.219232 4.399128,13.569496 4.606154,4.640321 9.757905,8.87512 13.281863,14.459928 1.547263,1.731286 4.381105,6.243822 7.571665,4.549736 2.321527,-1.703478 4.656358,-4.905749 6.67686,-6.906039 4.978918,-6.367432 11.795247,-11.067409 16.503251,-17.660271 2.291722,-3.507082 0.83276,-8.822545 -2.460146,-11.90404 -4.542481,-4.624042 -12.507641,-5.283694 -17.753846,-1.479626 -2.340982,0.574943 -2.087817,5.164034 -4.861879,4.40414 -1.451879,-2.52747 -3.290178,-5.189754 -6.258743,-6.01047 -1.52328,-0.613405 -3.179443,-0.901952 -4.820487,-0.816682 z"
         style="font-size:24px;font-style:normal;font-variant:normal;font-weight:bold;font-stretch:normal;line-height:125%;letter-spacing:0px;word-spacing:0px;fill:url(#radialGradient8609);fill-opacity:1;stroke:#550000;stroke-width:4;stroke-miterlimit:4;stroke-dasharray:none;font-family:Nimbus Mono L;-inkscape-font-specification:Nimbus Mono L Bold" />
      <path
         transform="matrix(2.1650635,-1.25,0.875,1.5155445,-66.18267,46.658022)"
         sodipodi:open="true"
         sodipodi:end="6.2776962"
         sodipodi:start="0"
         d="m 44,22 c 0,1.104569 -0.895431,2 -2,2 -1.104569,0 -2,-0.895431 -2,-2 0,-1.104569 0.895431,-2 2,-2 1.100285,0 1.99393,0.888754 1.99997,1.989022"
         sodipodi:ry="2"
         sodipodi:rx="2"
         sodipodi:cy="22"
         sodipodi:cx="42"
         id="path8607"
         style="opacity:0.25;fill:#ffffff;fill-opacity:1;fill-rule:nonzero;stroke:none"
         sodipodi:type="arc" />
    </g>
    <path
       style="fill:url(#radialGradient8661);fill-opacity:1;stroke:#808000;stroke-width:1.99999976;stroke-miterlimit:4;stroke-dasharray:none"
       d="m 99.325992,-115.58811 c -2.514405,0.0669 -4.736672,2.11137 -5.551434,4.41285 -0.933641,3.43769 1.280946,6.59781 2.482784,9.66272 0.61355,2.202279 3.788128,1.1383 5.553838,0.90268 1.45743,-0.3901 3.05539,-0.74217 2.53409,-2.54655 0.24491,-1.20405 0.90657,-2.16312 2.21957,-1.96432 1.94664,-0.19588 3.89325,-0.39177 5.8399,-0.58766 1.84863,-0.67446 1.0246,-2.43352 -0.56595,-2.22337 -2.08675,-0.28823 -4.17351,-0.57645 -6.26027,-0.86467 0.41656,-2.43596 -1.24816,-4.84975 -3.24091,-6.09478 -0.9527,-0.38957 -1.97706,-0.67445 -3.011618,-0.6969 z m 2.514948,4.2613 c 2.22462,-0.004 1.12495,3.62561 -0.72617,2.37603 -1.06094,-0.65661 -0.52143,-2.42452 0.72617,-2.37603 z m 3.72683,12.350561 c -2.61339,1.563602 -5.800412,2.156162 -8.804101,1.677167 -6.121884,1.4927 -12.301699,3.407807 -18.668773,3.136941 -1.364322,0.02034 -3.160549,-1.625558 -3.920837,-1.452782 0.941561,3.268104 0.648413,7.254583 3.479757,9.662003 2.489916,2.20378 5.842024,3.04947 8.965425,3.93006 7.044031,1.68676 14.791859,0.8531 21.121889,-2.72162 1.63306,-2.2415 1.7857,-5.22349 1.83392,-7.906761 0.21263,-2.136275 -1.17758,-3.814762 -2.69003,-5.115451 -0.43092,-0.41181 -0.87151,-0.814713 -1.31725,-1.209557 z m -2.50515,4.786073 c 0.12255,3.890996 -3.285929,6.785446 -6.74284,7.817286 -4.418655,1.37128 -9.534828,1.48044 -13.673111,-0.79773 -1.38416,-0.63576 -2.334687,-2.61777 -0.780633,-3.34032 1.976737,1.95003 5.088771,2.55384 7.847822,2.57524 3.80077,-0.0333 8.142854,-0.90033 10.579782,-4.086435 1.23103,-0.872313 0.38816,-2.615568 2.25184,-2.162733 0.17232,-0.0019 0.34509,-0.0029 0.51714,-0.0054 z M 86.923286,-78.80886 c -0.0078,1.28267 -0.01565,2.56533 -0.02346,3.848 -1.109991,0.37717 -3.507098,2.59797 -1.107147,2.11765 3.732205,0 7.464412,0 11.19662,0 -1.38052,-1.66013 -3.670749,-2.53771 -5.565002,-2.8674 0.0054,-0.80206 0.01035,-1.60411 0.01557,-2.40618 -1.427397,-0.56302 -1.765707,0.063 -1.567207,1.32603 0.614671,1.16629 -1.303918,1.9537 -1.408316,0.89975 0.0054,-0.8723 0.01028,-1.74461 0.01537,-2.61692 -0.520822,-0.0889 -1.041606,-0.18706 -1.556418,-0.30093 z"
       id="path6"
       inkscape:connector-curvature="0"
       sodipodi:nodetypes="cccccccccccccccccccccccccccccccccccccccccccc" />
    <g
       id="g8698"
       transform="matrix(0.7221365,0,0,0.7221365,108.4714,-119.12161)">
      <path
         inkscape:connector-curvature="0"
         id="path8670"
         d="m 147.90466,37.515216 23.03043,-29.6105559 13.16025,0 0,13.1602469 -29.61056,23.030432"
         style="fill:url(#linearGradient8705);fill-opacity:1;stroke:#000000;stroke-width:2.76955938;stroke-linecap:round;stroke-linejoin:round;stroke-miterlimit:4;stroke-opacity:1;stroke-dasharray:none" />
      <path
         sodipodi:nodetypes="cccccccc"
         inkscape:connector-curvature="0"
         id="path8665"
         transform="translate(0,-64)"
         d="m 140,92 4,12 -8,8 0,8 8,0 8,-8 12,4 c -9.07829,-6.61362 -17.31659,-14.30724 -24,-24 z"
         style="fill:#000000;stroke:#000000;stroke-width:2.76955938;stroke-linecap:round;stroke-linejoin:round;stroke-miterlimit:4;stroke-opacity:1;stroke-dasharray:none" />
      <g
         style="stroke-width:2;stroke-miterlimit:4;stroke-dasharray:none"
         transform="translate(-4,4)"
         id="g8678">
        <path
           sodipodi:nodetypes="cc"
           style="fill:none;stroke:#808080;stroke-width:2.76955938;stroke-linecap:butt;stroke-linejoin:miter;stroke-miterlimit:4;stroke-opacity:1;stroke-dasharray:none"
           d="M 160,96 176,80"
           id="path8674"
           inkscape:connector-curvature="0"
           transform="translate(0,-64)" />
        <path
           style="fill:none;stroke:#808080;stroke-width:2.76955938;stroke-linecap:butt;stroke-linejoin:miter;stroke-miterlimit:4;stroke-opacity:1;stroke-dasharray:none"
           d="m 176,76 0,4 4,0"
           id="path8676"
           inkscape:connector-curvature="0"
           transform="translate(0,-64)" />
      </g>
    </g>
    <g
       id="g8735"
       style="fill:url(#linearGradient8750);fill-opacity:1"
       transform="matrix(0.87187867,0,0,0.87187867,20.741643,-124.16421)">
      <path
         sodipodi:nodetypes="ccccccccccsccccccccccccccccccc"
         style="fill:url(#linearGradient4260);fill-opacity:1;stroke:none"
         inkscape:connector-curvature="0"
         id="path6-0"
         d="m 147.64161,17.52175 3.8016,3.801797 -2.22063,2.220433 c -0.67036,0.574772 -0.99517,1.547144 -0.65328,1.895565 l 0.0844,0.0843 17.63495,17.635484 c 2.34877,2.348765 5.52709,2.160122 7.635,0.645169 l 9.54942,9.549538 1.41084,-1.41065 -9.55979,-9.56 c 0.58465,-0.8336 0.95873,-1.822112 1.007,-2.888553 0.0675,-1.493287 -0.53681,-3.096852 -1.90934,-4.469373 l -17.76125,-17.76201 0.0551,-0.03186 c -0.12545,-0.383941 -1.2122,-0.261186 -1.88362,0.702604 l -1.97808,1.978299 -3.73516,-3.735176 c -0.47856,-2.297475 -3.51256,0.721806 -1.47706,1.34435 z m 8.44042,1.984703 16.80251,16.803703 -5.31183,5.311838 -16.8033,-16.803272 5.31248,-5.312267 z m 0.0894,2.815634 -1.41075,1.410754 13.9332,13.933193 1.41085,-1.410854 -13.9334,-13.932982 z" />
      <path
         transform="matrix(0.11773755,0,0,0.1095471,132.12844,0.93838243)"
         d="m 173.55932,113.35593 c 0,34.44759 -25.98266,62.37288 -58.0339,62.37288 -32.051235,0 -58.033896,-27.92529 -58.033896,-62.37288 0,-34.447595 25.982661,-62.372886 58.033896,-62.372886 32.05124,0 58.0339,27.925291 58.0339,62.372886 z"
         sodipodi:ry="62.372883"
         sodipodi:rx="58.033897"
         sodipodi:cy="113.35593"
         sodipodi:cx="115.52542"
         id="path2989"
         style="fill:url(#linearGradient4262);fill-opacity:1;fill-rule:nonzero;stroke:none"
         sodipodi:type="arc" />
      <path
         inkscape:connector-curvature="0"
         id="path2991"
         d="m 153.55944,29.230101 2.29293,-1.965353"
         style="fill:url(#linearGradient4264);fill-opacity:1;stroke:#4d4d4d;stroke-width:2.29389691;stroke-linecap:butt;stroke-linejoin:miter;stroke-miterlimit:4;stroke-opacity:1;stroke-dasharray:none" />
      <path
         style="fill:url(#linearGradient4266);fill-opacity:1;stroke:#4d4d4d;stroke-width:2.29389691;stroke-linecap:butt;stroke-linejoin:miter;stroke-miterlimit:4;stroke-opacity:1;stroke-dasharray:none"
         d="m 155.69468,31.365341 2.29292,-1.965352"
         id="path3761"
         inkscape:connector-curvature="0" />
      <path
         inkscape:connector-curvature="0"
         id="path3763"
         d="m 157.82991,33.500583 2.29293,-1.965354"
         style="fill:url(#linearGradient4268);fill-opacity:1;stroke:#4d4d4d;stroke-width:2.29389691;stroke-linecap:butt;stroke-linejoin:miter;stroke-miterlimit:4;stroke-opacity:1;stroke-dasharray:none" />
      <path
         style="fill:url(#linearGradient4270);fill-opacity:1;stroke:#4d4d4d;stroke-width:2.29389691;stroke-linecap:butt;stroke-linejoin:miter;stroke-miterlimit:4;stroke-opacity:1;stroke-dasharray:none"
         d="m 159.96515,35.635824 2.29293,-1.965354"
         id="path3765"
         inkscape:connector-curvature="0" />
      <path
         inkscape:connector-curvature="0"
         id="path3767"
         d="m 162.1004,37.771062 2.29293,-1.965353"
         style="fill:url(#linearGradient4272);fill-opacity:1;stroke:#4d4d4d;stroke-width:2.29389691;stroke-linecap:butt;stroke-linejoin:miter;stroke-miterlimit:4;stroke-opacity:1;stroke-dasharray:none" />
    </g>
    <rect
       style="fill:#ffffff;fill-opacity:1;fill-rule:nonzero;stroke:#ffffff;stroke-width:4;stroke-linecap:round;stroke-linejoin:round;stroke-miterlimit:4;stroke-opacity:1;stroke-dasharray:none;filter:url(#filter4274)"
       id="rect4258"
       width="52.760174"
       height="52.760174"
       x="197.61989"
       y="-186.38008"
       ry="13.190043" />
    <g
       id="g8870"
       transform="matrix(0.65910642,0,0,0.65910642,68.727148,-12.226816)">
      <g
         transform="translate(-8,0)"
         id="g8866">
        <rect
           style="fill:#000000;stroke:none"
           id="rect8338"
           width="8"
           height="20"
           x="16"
           y="152"
           transform="translate(0,-192)"
           ry="0" />
        <path
           style="fill:#000000;stroke:#000000;stroke-width:1.51720572px;stroke-linecap:butt;stroke-linejoin:miter;stroke-opacity:1"
           d="m 24,-40 12,-8 0,36 -12,-8 z"
           id="path8340"
           inkscape:connector-curvature="0" />
      </g>
      <path
         sodipodi:open="true"
         sodipodi:end="3.8397244"
         sodipodi:start="2.443461"
         transform="matrix(-1.4709461,0,0,1,86.508657,-192)"
         d="m 30.807466,181.28363 c -3.743288,-11.1527 -3.743288,-27.41456 10e-7,-38.56726"
         sodipodi:ry="30"
         sodipodi:rx="12"
         sodipodi:cy="162"
         sodipodi:cx="40"
         id="path8342"
         style="fill:none;stroke:#000000;stroke-width:5.00387001;stroke-miterlimit:4;stroke-dasharray:none"
         sodipodi:type="arc" />
      <path
         sodipodi:type="arc"
         style="fill:none;stroke:#000000;stroke-width:3.83701515;stroke-miterlimit:4;stroke-dasharray:none"
         id="path8344"
         sodipodi:cx="40"
         sodipodi:cy="162"
         sodipodi:rx="12"
         sodipodi:ry="30"
         d="m 30.807466,181.28363 c -3.743288,-11.1527 -3.743288,-27.41456 10e-7,-38.56726"
         transform="matrix(-1.9182679,0,0,1.3041048,114.37105,-241.26497)"
         sodipodi:start="2.443461"
         sodipodi:end="3.8397244"
         sodipodi:open="true" />
      <path
         sodipodi:open="true"
         sodipodi:end="3.8397244"
         sodipodi:start="2.443461"
         transform="matrix(-2.3677724,0,0,1.6096935,142.29763,-290.77037)"
         d="m 30.807466,181.28363 c -3.743288,-11.1527 -3.743288,-27.41456 10e-7,-38.56726"
         sodipodi:ry="30"
         sodipodi:rx="12"
         sodipodi:cy="162"
         sodipodi:cx="40"
         id="path8346"
         style="fill:none;stroke:#000000;stroke-width:3.10858583;stroke-miterlimit:4;stroke-dasharray:none"
         sodipodi:type="arc" />
    </g>
    <g
       id="g3115">
      <path
         sodipodi:type="arc"
         style="fill:url(#radialGradient3113);fill-opacity:1;fill-rule:nonzero;stroke:#89a02c;stroke-width:2.93138503999999989;stroke-linecap:round;stroke-linejoin:round;stroke-miterlimit:4;stroke-opacity:1;stroke-dasharray:none"
         id="path3084"
         sodipodi:cx="32"
         sodipodi:cy="160"
         sodipodi:rx="24"
         sodipodi:ry="24"
         d="m 56,160 a 24,24 0 1 1 -48,0 24,24 0 1 1 48,0 z"
         transform="matrix(0.59086438,0.34113572,-0.34113572,0.59086438,67.674056,-137.45464)" />
      <path
         sodipodi:open="true"
         sodipodi:end="5.8959359"
         sodipodi:start="3.5377752"
         transform="matrix(0.59086438,0.34113572,-0.34113572,0.59086438,66.309513,-135.09119)"
         d="m 17.239346,174.73841 a 16,24 0 0 1 29.575875,0.19816"
         sodipodi:ry="24"
         sodipodi:rx="16"
         sodipodi:cy="184"
         sodipodi:cx="32"
         id="path3080"
         style="fill:none;stroke:#89a02c;stroke-width:2.93138503999999989;stroke-linecap:round;stroke-linejoin:round;stroke-miterlimit:4;stroke-opacity:1;stroke-dasharray:none"
         sodipodi:type="arc" />
      <path
         sodipodi:open="true"
         sodipodi:end="2.6550928"
         sodipodi:start="0.5123568"
         sodipodi:type="arc"
         style="fill:none;stroke:#89a02c;stroke-width:2.93138503999999989;stroke-linecap:round;stroke-linejoin:round;stroke-miterlimit:4;stroke-opacity:1;stroke-dasharray:none"
         id="path3082"
         sodipodi:cx="32"
         sodipodi:cy="184"
         sodipodi:rx="16"
         sodipodi:ry="24"
         d="m 45.945465,195.76559 a 16,24 0 0 1 -28.08906,-0.54476"
         transform="matrix(0.59086438,0.34113572,-0.34113572,0.59086438,86.095385,-169.36132)" />
    </g>
  </g>
</svg>
