<?xml version="1.0" encoding="UTF-8" standalone="no"?>
<!-- Created with Inkscape (http://www.inkscape.org/) -->

<svg
   xmlns:dc="http://purl.org/dc/elements/1.1/"
   xmlns:cc="http://creativecommons.org/ns#"
   xmlns:rdf="http://www.w3.org/1999/02/22-rdf-syntax-ns#"
   xmlns:svg="http://www.w3.org/2000/svg"
   xmlns="http://www.w3.org/2000/svg"
   xmlns:xlink="http://www.w3.org/1999/xlink"
   xmlns:sodipodi="http://sodipodi.sourceforge.net/DTD/sodipodi-0.dtd"
   xmlns:inkscape="http://www.inkscape.org/namespaces/inkscape"
   width="256"
   height="128"
   id="svg7012"
   version="1.1"
   inkscape:version="0.48.2 r9819"
   sodipodi:docname="icons.svg"
   inkscape:export-filename="/Users/ben/Dev/whathaveidone/assets/graphics/icons.png"
   inkscape:export-xdpi="90"
   inkscape:export-ydpi="90">
  <defs
     id="defs7014">
    <linearGradient
       inkscape:collect="always"
       id="linearGradient8744">
      <stop
         style="stop-color:#ff0000;stop-opacity:1"
         offset="0"
         id="stop8746" />
      <stop
         style="stop-color:#ff5555;stop-opacity:1"
         offset="1"
         id="stop8748" />
    </linearGradient>
    <linearGradient
       inkscape:collect="always"
       id="linearGradient8690">
      <stop
         style="stop-color:#f9f9f9;stop-opacity:1"
         offset="0"
         id="stop8692" />
      <stop
         style="stop-color:#e6e6e6;stop-opacity:1"
         offset="1"
         id="stop8694" />
    </linearGradient>
    <linearGradient
       inkscape:collect="always"
       id="linearGradient8655">
      <stop
         style="stop-color:#ffe680;stop-opacity:1"
         offset="0"
         id="stop8657" />
      <stop
         style="stop-color:#ffd42a;stop-opacity:1"
         offset="1"
         id="stop8659" />
    </linearGradient>
    <linearGradient
       inkscape:collect="always"
       id="linearGradient8640">
      <stop
         style="stop-color:#cccccc;stop-opacity:1"
         offset="0"
         id="stop8642" />
      <stop
         style="stop-color:#808080;stop-opacity:1"
         offset="1"
         id="stop8644" />
    </linearGradient>
    <linearGradient
       inkscape:collect="always"
       id="linearGradient7839">
      <stop
         style="stop-color:#280b0b;stop-opacity:1"
         offset="0"
         id="stop7841" />
      <stop
         style="stop-color:#501616;stop-opacity:1"
         offset="1"
         id="stop7843" />
    </linearGradient>
    <linearGradient
       inkscape:collect="always"
       id="linearGradient7819">
      <stop
         style="stop-color:#a02c2c;stop-opacity:1"
         offset="0"
         id="stop7821" />
      <stop
         style="stop-color:#782121;stop-opacity:1"
         offset="1"
         id="stop7823" />
    </linearGradient>
    <radialGradient
       inkscape:collect="always"
       xlink:href="#linearGradient7819"
       id="radialGradient7837"
       gradientUnits="userSpaceOnUse"
       gradientTransform="matrix(1.0097415e-8,0.8917514,-0.8322157,0,58.211072,3.4639553)"
       cx="32"
       cy="31.495527"
       fx="32"
       fy="31.495527"
       r="26.91333" />
    <radialGradient
       inkscape:collect="always"
       xlink:href="#linearGradient7839"
       id="radialGradient7845"
       cx="32"
       cy="31.495527"
       fx="32"
       fy="31.495527"
       r="26.91333"
       gradientTransform="matrix(0,0.89175137,-0.83221569,-1.1056686e-6,58.211073,3.4639918)"
       gradientUnits="userSpaceOnUse" />
    <radialGradient
       inkscape:collect="always"
       xlink:href="#linearGradient7839"
       id="radialGradient7853"
       gradientUnits="userSpaceOnUse"
       gradientTransform="matrix(0,0.89175137,-0.83221569,-1.1056686e-6,122.21107,-60.536008)"
       cx="32"
       cy="31.495527"
       fx="32"
       fy="31.495527"
       r="26.91333" />
    <radialGradient
       inkscape:collect="always"
       xlink:href="#linearGradient7839"
       id="radialGradient8601"
       gradientUnits="userSpaceOnUse"
       gradientTransform="matrix(0,0.89175137,-0.83221569,-1.1056686e-6,58.21107,-60.536008)"
       cx="32"
       cy="31.495527"
       fx="32"
       fy="31.495527"
       r="26.91333" />
    <radialGradient
       inkscape:collect="always"
       xlink:href="#linearGradient7819"
       id="radialGradient8609"
       gradientUnits="userSpaceOnUse"
       gradientTransform="matrix(1.0097415e-8,0.8917514,-0.8322157,0,58.211072,3.4639553)"
       cx="32"
       cy="31.495527"
       fx="32"
       fy="31.495527"
       r="26.91333" />
    <clipPath
       clipPathUnits="userSpaceOnUse"
       id="clipPath8617">
      <rect
         style="opacity:0.25;fill:#ffffff;fill-opacity:1;fill-rule:nonzero;stroke:#000000;stroke-width:2;stroke-linecap:round;stroke-linejoin:round;stroke-miterlimit:4;stroke-opacity:1;stroke-dasharray:none"
         id="rect8619"
         width="31.636362"
         height="62.909092"
         x="-0.36363602"
         y="-0.36363602" />
    </clipPath>
    <radialGradient
       inkscape:collect="always"
       xlink:href="#linearGradient8640"
       id="radialGradient8646"
       cx="32.727272"
       cy="32.427937"
       fx="32.727272"
       fy="32.427937"
       r="23.389783"
       gradientTransform="matrix(1.1461348,-1.1203788,0.71913157,0.73566408,-28.40031,45.231167)"
       gradientUnits="userSpaceOnUse" />
    <radialGradient
       inkscape:collect="always"
       xlink:href="#linearGradient8655"
       id="radialGradient8661"
       cx="92.36364"
       cy="35.974537"
       fx="92.36364"
       fy="35.974537"
       r="27.774561"
       gradientTransform="matrix(0.7074855,0.60754356,-0.71031412,0.82716219,52.958294,-50.452759)"
       gradientUnits="userSpaceOnUse" />
    <linearGradient
       inkscape:collect="always"
       xlink:href="#linearGradient8690"
       id="linearGradient8696"
       x1="164"
       y1="24"
       x2="168"
       y2="28"
       gradientUnits="userSpaceOnUse" />
    <linearGradient
       inkscape:collect="always"
       xlink:href="#linearGradient8690"
       id="linearGradient8705"
       gradientUnits="userSpaceOnUse"
       x1="164"
       y1="24"
       x2="168"
       y2="28" />
    <linearGradient
       inkscape:collect="always"
       xlink:href="#linearGradient8744"
       id="linearGradient8750"
       x1="144"
       y1="12"
       x2="180"
       y2="48"
       gradientUnits="userSpaceOnUse" />
    <linearGradient
       inkscape:collect="always"
       xlink:href="#linearGradient8744"
       id="linearGradient4260"
       gradientUnits="userSpaceOnUse"
       x1="144"
       y1="12"
       x2="180"
       y2="48" />
    <linearGradient
       inkscape:collect="always"
       xlink:href="#linearGradient8744"
       id="linearGradient4262"
       gradientUnits="userSpaceOnUse"
       x1="144"
       y1="12"
       x2="180"
       y2="48" />
    <linearGradient
       inkscape:collect="always"
       xlink:href="#linearGradient8744"
       id="linearGradient4264"
       gradientUnits="userSpaceOnUse"
       x1="144"
       y1="12"
       x2="180"
       y2="48" />
    <linearGradient
       inkscape:collect="always"
       xlink:href="#linearGradient8744"
       id="linearGradient4266"
       gradientUnits="userSpaceOnUse"
       x1="144"
       y1="12"
       x2="180"
       y2="48" />
    <linearGradient
       inkscape:collect="always"
       xlink:href="#linearGradient8744"
       id="linearGradient4268"
       gradientUnits="userSpaceOnUse"
       x1="144"
       y1="12"
       x2="180"
       y2="48" />
    <linearGradient
       inkscape:collect="always"
       xlink:href="#linearGradient8744"
       id="linearGradient4270"
       gradientUnits="userSpaceOnUse"
       x1="144"
       y1="12"
       x2="180"
       y2="48" />
    <linearGradient
       inkscape:collect="always"
       xlink:href="#linearGradient8744"
       id="linearGradient4272"
       gradientUnits="userSpaceOnUse"
       x1="144"
       y1="12"
       x2="180"
       y2="48" />
    <filter
       id="filter4274"
       inkscape:label="Button"
       x="0"
       y="0"
       width="1"
       height="1"
       inkscape:menu="Bevels"
       inkscape:menu-tooltip="Soft bevel, slightly depressed middle"
       color-interpolation-filters="sRGB">
      <feGaussianBlur
         id="feGaussianBlur4276"
         stdDeviation="2.3"
         in="SourceAlpha"
         result="result0" />
      <feMorphology
         id="feMorphology4278"
         in="SourceAlpha"
         radius="6.6"
         result="result1" />
      <feGaussianBlur
         id="feGaussianBlur4280"
         stdDeviation="8.9"
         in="result1" />
      <feColorMatrix
         id="feColorMatrix4282"
         values="1 0 0 0 0 0 1 0 0 0 0 0 1 0 0 0 0 0 0.3 0"
         result="result91" />
      <feComposite
         id="feComposite4284"
         in2="result91"
         in="result0"
         operator="out"
         result="result2" />
      <feGaussianBlur
         id="feGaussianBlur4286"
         stdDeviation="1.7"
         result="result4" />
      <feDiffuseLighting
         id="feDiffuseLighting4288"
         surfaceScale="10"
         result="result92">
        <feDistantLight
           id="feDistantLight4290"
           azimuth="225"
           elevation="45" />
      </feDiffuseLighting>
      <feBlend
         id="feBlend4292"
         in2="SourceGraphic"
         mode="multiply"
         result="result93" />
      <feComposite
         id="feComposite4294"
         in2="SourceAlpha"
         operator="in"
         result="result3" />
      <feSpecularLighting
         id="feSpecularLighting4296"
         in="result4"
         surfaceScale="5"
         specularExponent="17.9"
         result="result94">
        <feDistantLight
           id="feDistantLight4298"
           azimuth="225"
           elevation="45" />
      </feSpecularLighting>
      <feComposite
         id="feComposite4300"
         in2="result3"
         operator="atop" />
    </filter>
  </defs>
  <sodipodi:namedview
     id="base"
     pagecolor="#ffffff"
     bordercolor="#666666"
     borderopacity="1.0"
     inkscape:pageopacity="0.0"
     inkscape:pageshadow="2"
     inkscape:zoom="2.75"
     inkscape:cx="130.07477"
     inkscape:cy="53.31681"
     inkscape:current-layer="layer1"
     showgrid="true"
     inkscape:document-units="px"
     inkscape:grid-bbox="true"
     inkscape:snap-global="true"
     inkscape:window-width="1276"
     inkscape:window-height="756"
     inkscape:window-x="4"
     inkscape:window-y="0"
     inkscape:window-maximized="1">
    <inkscape:grid
       type="xygrid"
       id="grid7020"
       empspacing="4"
       visible="true"
       enabled="true"
       snapvisiblegridlinesonly="true"
       spacingx="4px"
       spacingy="4px" />
  </sodipodi:namedview>
  <metadata
     id="metadata7017">
    <rdf:RDF>
      <cc:Work
         rdf:about="">
        <dc:format>image/svg+xml</dc:format>
        <dc:type
           rdf:resource="http://purl.org/dc/dcmitype/StillImage" />
        <dc:title></dc:title>
      </cc:Work>
    </rdf:RDF>
  </metadata>
  <g
     id="layer1"
     inkscape:label="Layer 1"
     inkscape:groupmode="layer"
     transform="translate(0,64)">
    <path
       style="font-size:24px;font-style:normal;font-variant:normal;font-weight:bold;font-stretch:normal;line-height:125%;letter-spacing:0px;word-spacing:0px;fill:url(#radialGradient7853);fill-opacity:1;stroke:#550000;stroke-width:4;stroke-miterlimit:4;stroke-dasharray:none;font-family:Nimbus Mono L;-inkscape-font-specification:Nimbus Mono L Bold"
       d="m 84.20962,-49.846995 c -5.097574,-0.240185 -10.942604,2.517942 -12.277666,7.793828 -0.969851,5.359948 0.584199,10.219232 4.399128,13.569496 4.606154,4.640321 9.757905,8.87512 13.281863,14.459928 1.547263,1.731286 4.381105,6.243822 7.571665,4.549736 2.321527,-1.703478 4.65636,-4.905749 6.67686,-6.906039 4.97892,-6.367432 11.79525,-11.067409 16.50325,-17.660271 2.29172,-3.507082 0.83276,-8.822545 -2.46015,-11.90404 -4.54248,-4.624042 -12.50764,-5.283694 -17.75384,-1.479626 -2.340983,0.574943 -2.087818,5.164034 -4.86188,4.40414 -1.451879,-2.52747 -3.290178,-5.189754 -6.258743,-6.01047 -1.52328,-0.613405 -3.179443,-0.901952 -4.820487,-0.816682 z"
       id="path4507"
       inkscape:connector-curvature="0"
       sodipodi:nodetypes="cccccccccccc" />
    <g
       id="g7831"
       transform="translate(128,-64)">
      <path
         style="font-size:24px;font-style:normal;font-variant:normal;font-weight:bold;font-stretch:normal;line-height:125%;letter-spacing:0px;word-spacing:0px;fill:url(#radialGradient7837);fill-opacity:1;stroke:#550000;stroke-width:4;stroke-miterlimit:4;stroke-dasharray:none;font-family:Nimbus Mono L;-inkscape-font-specification:Nimbus Mono L Bold"
         d="M 20.20962,14.153005 C 15.112046,13.91282 9.2670165,16.670947 7.931954,21.946833 c -0.9698512,5.359948 0.584199,10.219232 4.399128,13.569496 4.606154,4.640321 9.757905,8.87512 13.281863,14.459928 1.547263,1.731286 4.381105,6.243822 7.571665,4.549736 2.321527,-1.703478 4.656358,-4.905749 6.67686,-6.906039 4.978918,-6.367432 11.795247,-11.067409 16.503251,-17.660271 2.291722,-3.507082 0.83276,-8.822545 -2.460146,-11.90404 -4.542481,-4.624042 -12.507641,-5.283694 -17.753846,-1.479626 -2.340982,0.574943 -2.087817,5.164034 -4.861879,4.40414 -1.451879,-2.52747 -3.290178,-5.189754 -6.258743,-6.01047 -1.52328,-0.613405 -3.179443,-0.901952 -4.820487,-0.816682 z"
         id="path7833"
         inkscape:connector-curvature="0"
         sodipodi:nodetypes="cccccccccccc" />
      <path
         sodipodi:type="arc"
         style="opacity:0.25;fill:#ffffff;fill-opacity:1;fill-rule:nonzero;stroke:none"
         id="path7835"
         sodipodi:cx="42"
         sodipodi:cy="22"
         sodipodi:rx="2"
         sodipodi:ry="2"
         d="m 44,22 c 0,1.104569 -0.895431,2 -2,2 -1.104569,0 -2,-0.895431 -2,-2 0,-1.104569 0.895431,-2 2,-2 1.100285,0 1.99393,0.888754 1.99997,1.989022"
         sodipodi:start="0"
         sodipodi:end="6.2776962"
         sodipodi:open="true"
         transform="matrix(2.1650635,-1.25,0.875,1.5155445,-66.18267,46.658022)" />
    </g>
    <path
       style="fill:url(#radialGradient8646);fill-opacity:1;stroke:#000000;stroke-width:2;stroke-miterlimit:4;stroke-dasharray:none"
       d="m 40.747973,9.4594704 c -8.28e-4,14.9183896 -0.0015,29.8367806 -0.0025,44.7551716 0.824986,2.224198 5.438656,2.332452 6.27759,0.02678 C 46.299872,46.52885 45.573857,38.816543 44.85242,31.103812 47.981346,26.957544 48.391694,21.308643 47.410219,16.354915 46.751566,13.609188 43.813445,10.210433 40.748285,9.4594661 z M 23.648901,10.288139 c -8.27e-4,3.940638 -0.0015,7.881277 -0.0025,11.821914 -0.983362,-0.119005 -2.743478,0.538034 -2.211962,-1.094497 0,-3.575282 0,-7.150562 0,-10.725843 -0.919085,0.224143 -2.938261,-0.6517603 -2.519249,0.910436 10e-5,3.636156 2.15e-4,7.272308 3.15e-4,10.908463 -0.984067,-0.118503 -2.745978,0.540873 -2.215143,-1.092525 0,-3.575458 0,-7.150916 0,-10.726374 -0.82052,0.277568 -2.873956,-0.6777558 -2.565957,0.728349 0.03247,6.054222 -0.06552,12.113053 0.05053,18.164317 -0.06518,4.294265 5.023788,2.44793 3.650926,4.12014 -0.340976,14.428235 0.170288,11.401244 -0.05359,20.940989 0.826114,2.210727 3.758783,2.281778 4.580736,-0.0036 -0.274053,-10.015789 0.344173,-6.521061 -0.06975,-21.669358 2.380255,-0.568824 4.15561,-2.702384 3.718061,-5.192778 0,-5.696323 0,-11.392644 0,-17.088967 -0.787181,-4.93e-4 -1.575612,9.99e-4 -2.361998,-7.66e-4 z"
       id="path7859"
       inkscape:connector-curvature="0"
       sodipodi:nodetypes="ccccccccccccccccccccccccc" />
    <path
       sodipodi:nodetypes="cccccccccccc"
       inkscape:connector-curvature="0"
       id="path8599"
       d="m 20.20962,-49.846995 c -5.097574,-0.240185 -10.942604,2.517942 -12.277666,7.793828 -0.969851,5.359948 0.584199,10.219232 4.399128,13.569496 4.606154,4.640321 9.757905,8.87512 13.281863,14.459928 1.547263,1.731286 4.381105,6.243822 7.571665,4.549736 2.321527,-1.703478 4.65636,-4.905749 6.67686,-6.906039 4.97892,-6.367432 11.79525,-11.067409 16.50325,-17.660271 2.29172,-3.507082 0.83276,-8.822545 -2.46015,-11.90404 -4.54248,-4.624042 -12.50764,-5.283694 -17.75384,-1.479626 -2.340983,0.574943 -2.087818,5.164034 -4.86188,4.40414 -1.451879,-2.52747 -3.290178,-5.189754 -6.258743,-6.01047 -1.52328,-0.613405 -3.179443,-0.901952 -4.820487,-0.816682 z"
       style="font-size:24px;font-style:normal;font-variant:normal;font-weight:bold;font-stretch:normal;line-height:125%;letter-spacing:0px;word-spacing:0px;fill:url(#radialGradient8601);fill-opacity:1;stroke:#550000;stroke-width:4;stroke-miterlimit:4;stroke-dasharray:none;font-family:Nimbus Mono L;-inkscape-font-specification:Nimbus Mono L Bold" />
    <g
       transform="translate(64,-64)"
       id="g8603"
       clip-path="url(#clipPath8617)">
      <path
         sodipodi:nodetypes="cccccccccccc"
         inkscape:connector-curvature="0"
         id="path8605"
         d="M 20.20962,14.153005 C 15.112046,13.91282 9.2670165,16.670947 7.931954,21.946833 c -0.9698512,5.359948 0.584199,10.219232 4.399128,13.569496 4.606154,4.640321 9.757905,8.87512 13.281863,14.459928 1.547263,1.731286 4.381105,6.243822 7.571665,4.549736 2.321527,-1.703478 4.656358,-4.905749 6.67686,-6.906039 4.978918,-6.367432 11.795247,-11.067409 16.503251,-17.660271 2.291722,-3.507082 0.83276,-8.822545 -2.460146,-11.90404 -4.542481,-4.624042 -12.507641,-5.283694 -17.753846,-1.479626 -2.340982,0.574943 -2.087817,5.164034 -4.861879,4.40414 -1.451879,-2.52747 -3.290178,-5.189754 -6.258743,-6.01047 -1.52328,-0.613405 -3.179443,-0.901952 -4.820487,-0.816682 z"
         style="font-size:24px;font-style:normal;font-variant:normal;font-weight:bold;font-stretch:normal;line-height:125%;letter-spacing:0px;word-spacing:0px;fill:url(#radialGradient8609);fill-opacity:1;stroke:#550000;stroke-width:4;stroke-miterlimit:4;stroke-dasharray:none;font-family:Nimbus Mono L;-inkscape-font-specification:Nimbus Mono L Bold" />
      <path
         transform="matrix(2.1650635,-1.25,0.875,1.5155445,-66.18267,46.658022)"
         sodipodi:open="true"
         sodipodi:end="6.2776962"
         sodipodi:start="0"
         d="m 44,22 c 0,1.104569 -0.895431,2 -2,2 -1.104569,0 -2,-0.895431 -2,-2 0,-1.104569 0.895431,-2 2,-2 1.100285,0 1.99393,0.888754 1.99997,1.989022"
         sodipodi:ry="2"
         sodipodi:rx="2"
         sodipodi:cy="22"
         sodipodi:cx="42"
         id="path8607"
         style="opacity:0.25;fill:#ffffff;fill-opacity:1;fill-rule:nonzero;stroke:none"
         sodipodi:type="arc" />
    </g>
    <path
       style="fill:url(#radialGradient8661);fill-opacity:1;stroke:#808000;stroke-width:1.99999976;stroke-miterlimit:4;stroke-dasharray:none"
       d="m 99.325992,12.411895 c -2.514405,0.06693 -4.736672,2.11136 -5.551434,4.412848 -0.933641,3.437692 1.280946,6.59781 2.482784,9.662717 0.61355,2.202279 3.788128,1.138305 5.553838,0.902677 1.45743,-0.3901 3.05539,-0.742163 2.53409,-2.546542 0.24491,-1.204058 0.90657,-2.163122 2.21957,-1.964326 1.94664,-0.195881 3.89325,-0.391768 5.8399,-0.587656 1.84863,-0.674461 1.0246,-2.433519 -0.56595,-2.223369 -2.08675,-0.28823 -4.17351,-0.576456 -6.26027,-0.864677 0.41656,-2.435961 -1.24816,-4.849742 -3.24091,-6.094772 -0.9527,-0.389575 -1.97706,-0.674453 -3.011618,-0.6969 z m 2.514948,4.2613 c 2.22462,-0.0038 1.12495,3.625606 -0.72617,2.376024 -1.06094,-0.656611 -0.52143,-2.424518 0.72617,-2.376024 z m 3.72683,12.350556 c -2.61339,1.563602 -5.800412,2.156162 -8.804101,1.677167 -6.121884,1.4927 -12.301699,3.407807 -18.668773,3.136941 -1.364322,0.02034 -3.160549,-1.625558 -3.920837,-1.452782 0.941561,3.268104 0.648413,7.254582 3.479757,9.662008 2.489916,2.203776 5.842024,3.049467 8.965425,3.930055 7.044031,1.686759 14.791859,0.853102 21.121889,-2.721625 1.63306,-2.2415 1.7857,-5.22348 1.83392,-7.906756 0.21263,-2.136275 -1.17758,-3.814762 -2.69003,-5.115451 -0.43092,-0.41181 -0.87151,-0.814713 -1.31725,-1.209557 z m -2.50515,4.786073 c 0.12255,3.890999 -3.285929,6.785447 -6.74284,7.81729 -4.418655,1.371274 -9.534828,1.480432 -13.673111,-0.797734 -1.38416,-0.63576 -2.334687,-2.617773 -0.780633,-3.340323 1.976737,1.950037 5.088771,2.553839 7.847822,2.575244 3.80077,-0.03334 8.142854,-0.900335 10.579782,-4.086436 1.23103,-0.872313 0.38816,-2.615568 2.25184,-2.162733 0.17232,-0.0019 0.34509,-0.0029 0.51714,-0.0054 z M 86.923286,49.191137 c -0.0078,1.282669 -0.01565,2.565338 -0.02346,3.848007 -1.109991,0.377167 -3.507098,2.59797 -1.107147,2.117648 3.732205,0 7.464412,0 11.19662,0 -1.38052,-1.660135 -3.670749,-2.537711 -5.565002,-2.8674 0.0054,-0.802061 0.01035,-1.604116 0.01557,-2.406178 -1.427397,-0.563023 -1.765707,0.06296 -1.567207,1.326025 0.614671,1.166293 -1.303918,1.953702 -1.408316,0.899755 0.0054,-0.872309 0.01028,-1.744612 0.01537,-2.61692 -0.520822,-0.0889 -1.041606,-0.187069 -1.556418,-0.300937 z"
       id="path6"
       inkscape:connector-curvature="0"
       sodipodi:nodetypes="cccccccccccccccccccccccccccccccccccccccccccc" />
    <g
       id="g8698"
       transform="matrix(0.7221365,0,0,0.7221365,108.4714,8.8783864)">
      <path
         inkscape:connector-curvature="0"
         id="path8670"
         d="m 147.90466,37.515216 23.03043,-29.6105559 13.16025,0 0,13.1602469 -29.61056,23.030432"
         style="fill:url(#linearGradient8705);fill-opacity:1;stroke:#000000;stroke-width:2.76955938;stroke-linecap:round;stroke-linejoin:round;stroke-miterlimit:4;stroke-opacity:1;stroke-dasharray:none" />
      <path
         sodipodi:nodetypes="cccccccc"
         inkscape:connector-curvature="0"
         id="path8665"
         transform="translate(0,-64)"
         d="m 140,92 4,12 -8,8 0,8 8,0 8,-8 12,4 c -9.07829,-6.61362 -17.31659,-14.30724 -24,-24 z"
         style="fill:#000000;stroke:#000000;stroke-width:2.76955938;stroke-linecap:round;stroke-linejoin:round;stroke-miterlimit:4;stroke-opacity:1;stroke-dasharray:none" />
      <g
         style="stroke-width:2;stroke-miterlimit:4;stroke-dasharray:none"
         transform="translate(-4,4)"
         id="g8678">
        <path
           sodipodi:nodetypes="cc"
           style="fill:none;stroke:#808080;stroke-width:2.76955938;stroke-linecap:butt;stroke-linejoin:miter;stroke-miterlimit:4;stroke-opacity:1;stroke-dasharray:none"
           d="M 160,96 176,80"
           id="path8674"
           inkscape:connector-curvature="0"
           transform="translate(0,-64)" />
        <path
           style="fill:none;stroke:#808080;stroke-width:2.76955938;stroke-linecap:butt;stroke-linejoin:miter;stroke-miterlimit:4;stroke-opacity:1;stroke-dasharray:none"
           d="m 176,76 0,4 4,0"
           id="path8676"
           inkscape:connector-curvature="0"
           transform="translate(0,-64)" />
      </g>
    </g>
    <g
       id="g8735"
       style="fill:url(#linearGradient8750);fill-opacity:1"
       transform="matrix(0.87187867,0,0,0.87187867,20.741643,3.8357901)">
      <path
         sodipodi:nodetypes="ccccccccccsccccccccccccccccccc"
         style="fill:url(#linearGradient4260);fill-opacity:1;stroke:none"
         inkscape:connector-curvature="0"
         id="path6-0"
         d="m 147.64161,17.52175 3.8016,3.801797 -2.22063,2.220433 c -0.67036,0.574772 -0.99517,1.547144 -0.65328,1.895565 l 0.0844,0.0843 17.63495,17.635484 c 2.34877,2.348765 5.52709,2.160122 7.635,0.645169 l 9.54942,9.549538 1.41084,-1.41065 -9.55979,-9.56 c 0.58465,-0.8336 0.95873,-1.822112 1.007,-2.888553 0.0675,-1.493287 -0.53681,-3.096852 -1.90934,-4.469373 l -17.76125,-17.76201 0.0551,-0.03186 c -0.12545,-0.383941 -1.2122,-0.261186 -1.88362,0.702604 l -1.97808,1.978299 -3.73516,-3.735176 c -0.47856,-2.297475 -3.51256,0.721806 -1.47706,1.34435 z m 8.44042,1.984703 16.80251,16.803703 -5.31183,5.311838 -16.8033,-16.803272 5.31248,-5.312267 z m 0.0894,2.815634 -1.41075,1.410754 13.9332,13.933193 1.41085,-1.410854 -13.9334,-13.932982 z" />
      <path
         transform="matrix(0.11773755,0,0,0.1095471,132.12844,0.93838243)"
         d="m 173.55932,113.35593 c 0,34.44759 -25.98266,62.37288 -58.0339,62.37288 -32.051235,0 -58.033896,-27.92529 -58.033896,-62.37288 0,-34.447595 25.982661,-62.372886 58.033896,-62.372886 32.05124,0 58.0339,27.925291 58.0339,62.372886 z"
         sodipodi:ry="62.372883"
         sodipodi:rx="58.033897"
         sodipodi:cy="113.35593"
         sodipodi:cx="115.52542"
         id="path2989"
         style="fill:url(#linearGradient4262);fill-opacity:1;fill-rule:nonzero;stroke:none"
         sodipodi:type="arc" />
      <path
         inkscape:connector-curvature="0"
         id="path2991"
         d="m 153.55944,29.230101 2.29293,-1.965353"
         style="fill:url(#linearGradient4264);fill-opacity:1;stroke:#4d4d4d;stroke-width:2.29389691;stroke-linecap:butt;stroke-linejoin:miter;stroke-miterlimit:4;stroke-opacity:1;stroke-dasharray:none" />
      <path
         style="fill:url(#linearGradient4266);fill-opacity:1;stroke:#4d4d4d;stroke-width:2.29389691;stroke-linecap:butt;stroke-linejoin:miter;stroke-miterlimit:4;stroke-opacity:1;stroke-dasharray:none"
         d="m 155.69468,31.365341 2.29292,-1.965352"
         id="path3761"
         inkscape:connector-curvature="0" />
      <path
         inkscape:connector-curvature="0"
         id="path3763"
         d="m 157.82991,33.500583 2.29293,-1.965354"
         style="fill:url(#linearGradient4268);fill-opacity:1;stroke:#4d4d4d;stroke-width:2.29389691;stroke-linecap:butt;stroke-linejoin:miter;stroke-miterlimit:4;stroke-opacity:1;stroke-dasharray:none" />
      <path
         style="fill:url(#linearGradient4270);fill-opacity:1;stroke:#4d4d4d;stroke-width:2.29389691;stroke-linecap:butt;stroke-linejoin:miter;stroke-miterlimit:4;stroke-opacity:1;stroke-dasharray:none"
         d="m 159.96515,35.635824 2.29293,-1.965354"
         id="path3765"
         inkscape:connector-curvature="0" />
      <path
         inkscape:connector-curvature="0"
         id="path3767"
         d="m 162.1004,37.771062 2.29293,-1.965353"
         style="fill:url(#linearGradient4272);fill-opacity:1;stroke:#4d4d4d;stroke-width:2.29389691;stroke-linecap:butt;stroke-linejoin:miter;stroke-miterlimit:4;stroke-opacity:1;stroke-dasharray:none" />
    </g>
    <rect
       style="opacity:1;fill:#ffffff;fill-opacity:1;fill-rule:nonzero;stroke:#ffffff;stroke-width:4;stroke-linecap:round;stroke-linejoin:round;stroke-miterlimit:4;stroke-opacity:1;stroke-dasharray:none;filter:url(#filter4274)"
       id="rect4258"
       width="52.760174"
       height="52.760174"
       x="197.61989"
       y="-58.380085"
       ry="13.190043" />
  </g>
</svg>
