<?xml version="1.0" encoding="UTF-8" standalone="no"?>
<!-- Created with Inkscape (http://www.inkscape.org/) -->

<svg
   xmlns:dc="http://purl.org/dc/elements/1.1/"
   xmlns:cc="http://creativecommons.org/ns#"
   xmlns:rdf="http://www.w3.org/1999/02/22-rdf-syntax-ns#"
   xmlns:svg="http://www.w3.org/2000/svg"
   xmlns="http://www.w3.org/2000/svg"
   xmlns:xlink="http://www.w3.org/1999/xlink"
   xmlns:sodipodi="http://sodipodi.sourceforge.net/DTD/sodipodi-0.dtd"
   xmlns:inkscape="http://www.inkscape.org/namespaces/inkscape"
   width="128"
   height="128"
   id="svg2"
   version="1.1"
   inkscape:version="0.48.2 r9819"
   sodipodi:docname="meat.svg"
   inkscape:export-filename="/Users/ben/Dev/whathaveidone/assets/graphics/meat.png"
   inkscape:export-xdpi="90"
   inkscape:export-ydpi="90">
  <defs
     id="defs4">
    <linearGradient
       id="linearGradient4079"
       inkscape:collect="always">
      <stop
         id="stop4081"
         offset="0"
         style="stop-color:#c87137;stop-opacity:1" />
      <stop
         id="stop4083"
         offset="1"
         style="stop-color:#aa4400;stop-opacity:1" />
    </linearGradient>
    <linearGradient
       id="linearGradient4055"
       inkscape:collect="always">
      <stop
         id="stop4057"
         offset="0"
         style="stop-color:#e6e6e6;stop-opacity:1" />
      <stop
         id="stop4059"
         offset="1"
         style="stop-color:#cccccc;stop-opacity:1" />
    </linearGradient>
    <linearGradient
       inkscape:collect="always"
       id="linearGradient4045">
      <stop
         style="stop-color:#c83737;stop-opacity:1"
         offset="0"
         id="stop4047" />
      <stop
         style="stop-color:#a02c2c;stop-opacity:1"
         offset="1"
         id="stop4049" />
    </linearGradient>
    <linearGradient
       inkscape:collect="always"
       id="linearGradient4008">
      <stop
         style="stop-color:#f9f9f9;stop-opacity:1"
         offset="0"
         id="stop4010" />
      <stop
         style="stop-color:#e6e6e6;stop-opacity:1"
         offset="1"
         id="stop4012" />
    </linearGradient>
    <filter
       id="filter3967"
       inkscape:label="Drop shadow"
       width="1.5"
       height="1.5"
       x="-.25"
       y="-.25">
      <feGaussianBlur
         id="feGaussianBlur3969"
         in="SourceAlpha"
         stdDeviation="2"
         result="blur" />
      <feColorMatrix
         id="feColorMatrix3971"
         result="bluralpha"
         type="matrix"
         values="1 0 0 0 0 0 1 0 0 0 0 0 1 0 0 0 0 0 0.25 0 " />
      <feOffset
         id="feOffset3973"
         in="bluralpha"
         dx="4"
         dy="4"
         result="offsetBlur" />
      <feMerge
         id="feMerge3975">
        <feMergeNode
           id="feMergeNode3977"
           in="offsetBlur" />
        <feMergeNode
           id="feMergeNode3979"
           in="SourceGraphic" />
      </feMerge>
    </filter>
    <radialGradient
       inkscape:collect="always"
       xlink:href="#linearGradient4008"
       id="radialGradient4014"
       cx="67.509842"
       cy="970.35693"
       fx="67.509842"
       fy="970.35693"
       r="86.165014"
       gradientTransform="matrix(0.48910744,0.38476467,-0.59980769,0.76247076,616.51783,205.027)"
       gradientUnits="userSpaceOnUse" />
    <radialGradient
       inkscape:collect="always"
       xlink:href="#linearGradient4045"
       id="radialGradient4051"
       cx="70.710678"
       cy="68.022324"
       fx="70.710678"
       fy="68.022324"
       r="37.860416"
       gradientTransform="matrix(-0.86713139,1.4043889,-0.69484577,-0.13324147,179.29115,-21.356307)"
       gradientUnits="userSpaceOnUse" />
    <linearGradient
       inkscape:collect="always"
       xlink:href="#linearGradient4055"
       id="linearGradient4053"
       x1="76.771591"
       y1="1003.8749"
       x2="112.12693"
       y2="1023.0677"
       gradientUnits="userSpaceOnUse"
       gradientTransform="matrix(0.86602541,-0.50000001,0.50000001,0.86602541,-483.42731,161.66289)" />
    <radialGradient
       inkscape:collect="always"
       xlink:href="#linearGradient4079"
       id="radialGradient4070"
       gradientUnits="userSpaceOnUse"
       gradientTransform="matrix(-0.86713139,1.4043889,-0.69484577,-0.13324147,179.29115,-21.356307)"
       cx="70.710678"
       cy="68.022324"
       fx="70.710678"
       fy="68.022324"
       r="37.860416" />
    <linearGradient
       inkscape:collect="always"
       xlink:href="#linearGradient4055"
       id="linearGradient4095"
       gradientUnits="userSpaceOnUse"
       gradientTransform="matrix(0.86602541,-0.50000001,0.50000001,0.86602541,-483.42731,161.66289)"
       x1="76.771591"
       y1="1003.8749"
       x2="112.12693"
       y2="1023.0677" />
    <radialGradient
       inkscape:collect="always"
       xlink:href="#linearGradient4079"
       id="radialGradient4097"
       gradientUnits="userSpaceOnUse"
       gradientTransform="matrix(-0.86713139,1.4043889,-0.69484577,-0.13324147,179.29115,-21.356307)"
       cx="70.710678"
       cy="68.022324"
       fx="70.710678"
       fy="68.022324"
       r="37.860416" />
    <linearGradient
       inkscape:collect="always"
       xlink:href="#linearGradient4055"
       id="linearGradient4107"
       gradientUnits="userSpaceOnUse"
       gradientTransform="matrix(0.82351723,-0.56729129,0.56729129,0.82351723,-512.8216,195.86276)"
       x1="76.771591"
       y1="1003.8749"
       x2="112.12693"
       y2="1023.0677" />
    <linearGradient
       inkscape:collect="always"
       xlink:href="#linearGradient4055"
       id="linearGradient4111"
       gradientUnits="userSpaceOnUse"
       gradientTransform="matrix(-0.82351723,0.56729129,-0.56729129,-0.82351723,627.84694,1772.1444)"
       x1="76.771591"
       y1="1003.8749"
       x2="112.12693"
       y2="1023.0677" />
    <radialGradient
       inkscape:collect="always"
       xlink:href="#linearGradient4079"
       id="radialGradient4124"
       gradientUnits="userSpaceOnUse"
       gradientTransform="matrix(-0.86713139,1.4043889,-0.69484577,-0.13324147,179.29115,-21.356307)"
       cx="70.710678"
       cy="68.022324"
       fx="70.710678"
       fy="68.022324"
       r="37.860416" />
    <linearGradient
       inkscape:collect="always"
       xlink:href="#linearGradient4055"
       id="linearGradient4138"
       gradientUnits="userSpaceOnUse"
       gradientTransform="matrix(0.82351723,-0.56729129,0.56729129,0.82351723,-512.8216,195.86276)"
       x1="76.771591"
       y1="1003.8749"
       x2="112.12693"
       y2="1023.0677" />
    <linearGradient
       inkscape:collect="always"
       xlink:href="#linearGradient4055"
       id="linearGradient4140"
       gradientUnits="userSpaceOnUse"
       gradientTransform="matrix(-0.82351723,0.56729129,-0.56729129,-0.82351723,627.84694,1772.1444)"
       x1="76.771591"
       y1="1003.8749"
       x2="112.12693"
       y2="1023.0677" />
    <radialGradient
       inkscape:collect="always"
       xlink:href="#linearGradient4079"
       id="radialGradient4142"
       gradientUnits="userSpaceOnUse"
       gradientTransform="matrix(-0.86713139,1.4043889,-0.69484577,-0.13324147,179.29115,-21.356307)"
       cx="70.710678"
       cy="68.022324"
       fx="70.710678"
       fy="68.022324"
       r="37.860416" />
    <linearGradient
       inkscape:collect="always"
       xlink:href="#linearGradient4055"
       id="linearGradient4153"
       gradientUnits="userSpaceOnUse"
       gradientTransform="matrix(-0.61583294,0.21882274,-0.21882274,-0.61583294,295.57479,1580.5574)"
       x1="76.771591"
       y1="1003.8749"
       x2="112.12693"
       y2="1023.0677" />
    <linearGradient
       inkscape:collect="always"
       xlink:href="#linearGradient4055"
       id="linearGradient4156"
       gradientUnits="userSpaceOnUse"
       gradientTransform="matrix(0.61583294,-0.21882274,0.21882274,0.61583294,-169.88067,390.52726)"
       x1="76.771591"
       y1="1003.8749"
       x2="112.12693"
       y2="1023.0677" />
    <linearGradient
       inkscape:collect="always"
       xlink:href="#linearGradient4055"
       id="linearGradient4170"
       gradientUnits="userSpaceOnUse"
       gradientTransform="matrix(0.61583294,-0.21882274,0.21882274,0.61583294,-169.88067,390.52726)"
       x1="76.771591"
       y1="1003.8749"
       x2="112.12693"
       y2="1023.0677" />
    <linearGradient
       inkscape:collect="always"
       xlink:href="#linearGradient4055"
       id="linearGradient4172"
       gradientUnits="userSpaceOnUse"
       gradientTransform="matrix(-0.61583294,0.21882274,-0.21882274,-0.61583294,295.57479,1580.5574)"
       x1="76.771591"
       y1="1003.8749"
       x2="112.12693"
       y2="1023.0677" />
    <radialGradient
       inkscape:collect="always"
       xlink:href="#linearGradient4079"
       id="radialGradient4174"
       gradientUnits="userSpaceOnUse"
       gradientTransform="matrix(-0.86713139,1.4043889,-0.69484577,-0.13324147,179.29115,-21.356307)"
       cx="70.710678"
       cy="68.022324"
       fx="70.710678"
       fy="68.022324"
       r="37.860416" />
    <radialGradient
       inkscape:collect="always"
       xlink:href="#linearGradient4079"
       id="radialGradient4177"
       gradientUnits="userSpaceOnUse"
       gradientTransform="matrix(-0.86713139,1.4043889,-0.69484577,-0.13324147,179.29115,-21.356307)"
       cx="70.710678"
       cy="68.022324"
       fx="70.710678"
       fy="68.022324"
       r="37.860416" />
    <linearGradient
       inkscape:collect="always"
       xlink:href="#linearGradient4055"
       id="linearGradient5034"
       gradientUnits="userSpaceOnUse"
       gradientTransform="matrix(-0.66958992,0.23792411,-0.23792411,-0.66958992,317.88995,1646.65)"
       x1="76.771591"
       y1="1003.8749"
       x2="112.12693"
       y2="1023.0677" />
    <linearGradient
       inkscape:collect="always"
       xlink:href="#linearGradient4055"
       id="linearGradient5037"
       gradientUnits="userSpaceOnUse"
       gradientTransform="matrix(0.66958992,-0.23792411,0.23792411,0.66958992,-188.19582,352.74034)"
       x1="76.771591"
       y1="1003.8749"
       x2="112.12693"
       y2="1023.0677" />
  </defs>
  <sodipodi:namedview
     id="base"
     pagecolor="#ffffff"
     bordercolor="#666666"
     borderopacity="1.0"
     inkscape:pageopacity="0.0"
     inkscape:pageshadow="2"
     inkscape:zoom="3.959798"
     inkscape:cx="80.194341"
     inkscape:cy="54.488765"
     inkscape:document-units="px"
     inkscape:current-layer="layer1"
     showgrid="true"
     inkscape:window-width="1276"
     inkscape:window-height="756"
     inkscape:window-x="4"
     inkscape:window-y="0"
     inkscape:window-maximized="1"
     inkscape:snap-global="false">
    <inkscape:grid
       type="xygrid"
       id="grid2985"
       empspacing="4"
       visible="true"
       enabled="true"
       snapvisiblegridlinesonly="true"
       spacingx="4px"
       spacingy="4px" />
  </sodipodi:namedview>
  <metadata
     id="metadata7">
    <rdf:RDF>
      <cc:Work
         rdf:about="">
        <dc:format>image/svg+xml</dc:format>
        <dc:type
           rdf:resource="http://purl.org/dc/dcmitype/StillImage" />
        <dc:title></dc:title>
      </cc:Work>
    </rdf:RDF>
  </metadata>
  <g
     inkscape:label="Layer 1"
     inkscape:groupmode="layer"
     id="layer1"
     transform="translate(0,-924.36218)">
    <path
       style="fill:url(#linearGradient5037);fill-opacity:1;fill-rule:nonzero;stroke:#4d4d4d;stroke-width:4.00000047999999975;stroke-linecap:round;stroke-linejoin:round;stroke-miterlimit:4;stroke-opacity:1;stroke-dasharray:none"
       d="m 119.80334,1001.0645 c -3.31396,-0.6105 -6.36186,0.9496 -6.82874,3.4838 -0.0222,0.1208 -0.0327,0.2328 -0.0425,0.3534 l -27.910089,-5.14183 -1.758197,9.54363 27.888246,5.1377 c -0.37914,2.4966 1.89431,4.978 5.15908,5.5794 3.31396,0.6104 6.38373,-0.9455 6.85062,-3.4797 0.46683,-2.5343 -1.84684,-5.082 -5.16084,-5.6926 -0.48626,-0.09 -0.95362,-0.1264 -1.42182,-0.1264 l 0.16094,-0.8736 c 0.43732,0.1672 0.88726,0.2988 1.3735,0.3887 3.31397,0.6105 6.38371,-0.9456 6.8506,-3.4797 0.46685,-2.5343 -1.84683,-5.0821 -5.1608,-5.6926 z"
       id="rect4018"
       inkscape:connector-curvature="0" />
    <path
       inkscape:connector-curvature="0"
       id="path4109"
       d="m 9.8907779,998.32577 c 3.3139771,0.61056 6.3618741,-0.94958 6.8287621,-3.48375 0.02225,-0.12083 0.03268,-0.23285 0.0425,-0.35347 l 27.910092,5.14185 1.758181,-9.54361 -27.888233,-5.13774 c 0.379137,-2.49665 -1.894321,-4.97793 -5.159079,-5.57939 -3.31396,-0.61047 -6.3837353,0.94553 -6.8506237,3.47969 -0.4668249,2.5343 1.8468319,5.0821 5.1608357,5.69266 0.486318,0.0896 0.953632,0.12641 1.421826,0.12642 l -0.160954,0.87354 c -0.437402,-0.16693 -0.887228,-0.29894 -1.373534,-0.38849 -3.3139754,-0.61055 -6.3837072,0.94553 -6.8506027,3.47972 -0.4668489,2.53423 1.8468267,5.08208 5.1607994,5.69256 z"
       style="fill:url(#linearGradient5034);fill-opacity:1;fill-rule:nonzero;stroke:#4d4d4d;stroke-width:4.00000047999999975;stroke-linecap:round;stroke-linejoin:round;stroke-miterlimit:4;stroke-opacity:1;stroke-dasharray:none" />
    <g
       id="g4115"
       transform="matrix(0.78620567,-0.21066318,0.25456084,0.95003385,-223.4577,70.813433)">
      <path
         sodipodi:nodetypes="ssssccs"
         inkscape:connector-curvature="0"
         id="path4016"
         d="m 103.54064,71.178917 c -0.94752,13.936752 -17.904988,25.416978 -35.860418,25.506351 -8.74,0.0435 -15.335934,-9.722837 -23.315478,-10.716212 -11.503275,-1.432045 -12.571397,-6.888615 -12.544939,-14.790139 0.03386,-10.11103 7.617559,-15.876851 19.599022,-20.006072 15.40463,-6.847138 34.35878,-5.014988 46.589521,1.742363 6.954002,6.743568 6.029102,10.956347 5.532292,18.263709 z"
         style="fill:url(#radialGradient4177);fill-opacity:1;fill-rule:nonzero;stroke:#784421;stroke-width:3.87096119;stroke-linecap:round;stroke-linejoin:round;stroke-miterlimit:4;stroke-opacity:1"
         transform="matrix(1.1549077,0.20029136,0,1.1549077,-29.262394,890.81507)" />
      <path
         transform="matrix(2.1348794,0,0,2.1348794,-36.670463,857.44431)"
         d="m 30.809652,58.552013 c 0,1.534203 -1.582912,2.77792 -3.535534,2.77792 -1.952621,0 -3.535533,-1.243717 -3.535533,-2.77792 0,-1.534202 1.582912,-2.777919 3.535533,-2.777919 1.952622,0 3.535534,1.243717 3.535534,2.777919 z"
         sodipodi:ry="2.7779195"
         sodipodi:rx="3.5355339"
         sodipodi:cy="58.552013"
         sodipodi:cx="27.274118"
         id="path4025"
         style="opacity:0.5;fill:#e9afaf;fill-opacity:1;fill-rule:nonzero;stroke:none"
         sodipodi:type="arc" />
      <path
         sodipodi:type="arc"
         style="opacity:0.5;fill:#e9afaf;fill-opacity:1;fill-rule:nonzero;stroke:none"
         id="path4027"
         sodipodi:cx="27.274118"
         sodipodi:cy="58.552013"
         sodipodi:rx="3.5355339"
         sodipodi:ry="2.7779195"
         d="m 30.809652,58.552013 c 0,1.534203 -1.582912,2.77792 -3.535534,2.77792 -1.952621,0 -3.535533,-1.243717 -3.535533,-2.77792 0,-1.534202 1.582912,-2.777919 3.535533,-2.777919 1.952622,0 3.535534,1.243717 3.535534,2.777919 z"
         transform="matrix(2.4615366,0,0,2.4615366,-20.171781,822.14916)" />
      <path
         transform="matrix(1.4815649,-1.1208961e-8,1.1208961e-8,1.4815649,-1.0270319,919.40211)"
         d="m 30.809652,58.552013 c 0,1.534203 -1.582912,2.77792 -3.535534,2.77792 -1.952621,0 -3.535533,-1.243717 -3.535533,-2.77792 0,-1.534202 1.582912,-2.777919 3.535533,-2.777919 1.952622,0 3.535534,1.243717 3.535534,2.777919 z"
         sodipodi:ry="2.7779195"
         sodipodi:rx="3.5355339"
         sodipodi:cy="58.552013"
         sodipodi:cx="27.274118"
         id="path4029"
         style="opacity:0.5;fill:#e9afaf;fill-opacity:1;fill-rule:nonzero;stroke:none"
         sodipodi:type="arc" />
      <path
         sodipodi:type="arc"
         style="opacity:0.5;fill:#e9afaf;fill-opacity:1;fill-rule:nonzero;stroke:none"
         id="path4031"
         sodipodi:cx="27.274118"
         sodipodi:cy="58.552013"
         sodipodi:rx="3.5355339"
         sodipodi:ry="2.7779195"
         d="m 30.809652,58.552013 c 0,1.534203 -1.582912,2.77792 -3.535534,2.77792 -1.952621,0 -3.535533,-1.243717 -3.535533,-2.77792 0,-1.534202 1.582912,-2.777919 3.535533,-2.777919 1.952622,0 3.535534,1.243717 3.535534,2.777919 z"
         transform="matrix(1.4815649,-1.1208961e-8,1.1208961e-8,1.4815649,27.344423,921.10515)" />
      <path
         transform="matrix(2.1348794,0,0,2.1348794,16.455292,857.44431)"
         d="m 30.809652,58.552013 c 0,1.534203 -1.582912,2.77792 -3.535534,2.77792 -1.952621,0 -3.535533,-1.243717 -3.535533,-2.77792 0,-1.534202 1.582912,-2.777919 3.535533,-2.777919 1.952622,0 3.535534,1.243717 3.535534,2.777919 z"
         sodipodi:ry="2.7779195"
         sodipodi:rx="3.5355339"
         sodipodi:cy="58.552013"
         sodipodi:cx="27.274118"
         id="path4033"
         style="opacity:0.5;fill:#e9afaf;fill-opacity:1;fill-rule:nonzero;stroke:none"
         sodipodi:type="arc" />
      <path
         sodipodi:type="arc"
         style="opacity:0.5;fill:#e9afaf;fill-opacity:1;fill-rule:nonzero;stroke:none"
         id="path4035"
         sodipodi:cx="27.274118"
         sodipodi:cy="58.552013"
         sodipodi:rx="3.5355339"
         sodipodi:ry="2.7779195"
         d="m 30.809652,58.552013 c 0,1.534203 -1.582912,2.77792 -3.535534,2.77792 -1.952621,0 -3.535533,-1.243717 -3.535533,-2.77792 0,-1.534202 1.582912,-2.777919 3.535533,-2.777919 1.952622,0 3.535534,1.243717 3.535534,2.777919 z"
         transform="matrix(3.1148511,0,0,3.1148511,-35.680543,806.99444)" />
    </g>
  </g>
</svg>
